solid ascii
  facet normal -5.387555e-01 8.424622e-01 0.000000e+00
    outer loop
      vertex   -1.643891e+02 1.140461e+02 1.453881e+00
      vertex   -1.643891e+02 1.140461e+02 7.546119e+00
      vertex   -1.636794e+02 1.145000e+02 1.000000e+00
    endloop
  endfacet
  facet normal -5.387555e-01 8.424622e-01 0.000000e+00
    outer loop
      vertex   -1.636794e+02 1.145000e+02 1.000000e+00
      vertex   -1.643891e+02 1.140461e+02 7.546119e+00
      vertex   -1.636794e+02 1.145000e+02 8.000000e+00
    endloop
  endfacet
  facet normal 0.000000e+00 7.071068e-01 -7.071068e-01
    outer loop
      vertex   -1.636794e+02 1.145000e+02 8.000000e+00
      vertex   -1.643891e+02 1.140461e+02 7.546119e+00
      vertex   -1.657811e+02 1.145000e+02 8.000000e+00
    endloop
  endfacet
  facet normal -2.265687e-15 7.071068e-01 -7.071068e-01
    outer loop
      vertex   -1.657811e+02 1.145000e+02 8.000000e+00
      vertex   -1.643891e+02 1.140461e+02 7.546119e+00
      vertex   -1.654888e+02 1.140452e+02 7.545188e+00
    endloop
  endfacet
  facet normal -2.239239e-15 7.071068e-01 -7.071068e-01
    outer loop
      vertex   -1.654888e+02 1.140452e+02 7.545188e+00
      vertex   -1.643891e+02 1.140461e+02 7.546119e+00
      vertex   -1.644103e+02 1.140000e+02 7.500000e+00
    endloop
  endfacet
  facet normal 0.000000e+00 7.071068e-01 -7.071068e-01
    outer loop
      vertex   -1.655093e+02 1.140000e+02 7.500000e+00
      vertex   -1.654888e+02 1.140452e+02 7.545188e+00
      vertex   -1.644103e+02 1.140000e+02 7.500000e+00
    endloop
  endfacet
  facet normal 8.412593e-01 5.406319e-01 -0.000000e+00
    outer loop
      vertex   -1.657811e+02 1.145000e+02 1.000000e+00
      vertex   -1.657811e+02 1.145000e+02 8.000000e+00
      vertex   -1.654888e+02 1.140452e+02 1.454812e+00
    endloop
  endfacet
  facet normal 8.412593e-01 5.406319e-01 0.000000e+00
    outer loop
      vertex   -1.654888e+02 1.140452e+02 1.454812e+00
      vertex   -1.657811e+02 1.145000e+02 8.000000e+00
      vertex   -1.654888e+02 1.140452e+02 7.545188e+00
    endloop
  endfacet
  facet normal 0.000000e+00 7.071068e-01 7.071068e-01
    outer loop
      vertex   -1.636794e+02 1.145000e+02 1.000000e+00
      vertex   -1.657811e+02 1.145000e+02 1.000000e+00
      vertex   -1.643891e+02 1.140461e+02 1.453881e+00
    endloop
  endfacet
  facet normal -2.392384e-15 7.071068e-01 7.071068e-01
    outer loop
      vertex   -1.643891e+02 1.140461e+02 1.453881e+00
      vertex   -1.657811e+02 1.145000e+02 1.000000e+00
      vertex   -1.654888e+02 1.140452e+02 1.454812e+00
    endloop
  endfacet
  facet normal 0.000000e+00 7.071068e-01 7.071068e-01
    outer loop
      vertex   -1.644103e+02 1.140000e+02 1.500000e+00
      vertex   -1.654888e+02 1.140452e+02 1.454812e+00
      vertex   -1.655093e+02 1.140000e+02 1.500000e+00
    endloop
  endfacet
  facet normal -2.370520e-15 7.071068e-01 7.071068e-01
    outer loop
      vertex   -1.644103e+02 1.140000e+02 1.500000e+00
      vertex   -1.643891e+02 1.140461e+02 1.453881e+00
      vertex   -1.654888e+02 1.140452e+02 1.454812e+00
    endloop
  endfacet
  facet normal -0.000000e+00 0.000000e+00 1.000000e+00
    outer loop
      vertex   -1.655093e+02 1.140000e+02 1.500000e+00
      vertex   -1.664415e+02 1.118805e+02 1.500000e+00
      vertex   -1.644103e+02 1.140000e+02 1.500000e+00
    endloop
  endfacet
  facet normal -0.000000e+00 0.000000e+00 1.000000e+00
    outer loop
      vertex   -1.644103e+02 1.140000e+02 1.500000e+00
      vertex   -1.664415e+02 1.118805e+02 1.500000e+00
      vertex   -1.653529e+02 1.118815e+02 1.500000e+00
    endloop
  endfacet
  facet normal 0.000000e+00 0.000000e+00 1.000000e+00
    outer loop
      vertex   -1.653529e+02 1.118815e+02 1.500000e+00
      vertex   -1.664415e+02 1.118805e+02 1.500000e+00
      vertex   -1.673262e+02 1.097407e+02 1.500000e+00
    endloop
  endfacet
  facet normal 0.000000e+00 0.000000e+00 1.000000e+00
    outer loop
      vertex   -1.662475e+02 1.097423e+02 1.500000e+00
      vertex   -1.673262e+02 1.097407e+02 1.500000e+00
      vertex   -1.681628e+02 1.075816e+02 1.500000e+00
    endloop
  endfacet
  facet normal 0.000000e+00 0.000000e+00 1.000000e+00
    outer loop
      vertex   -1.670935e+02 1.075835e+02 1.500000e+00
      vertex   -1.681628e+02 1.075816e+02 1.500000e+00
      vertex   -1.689511e+02 1.054044e+02 1.500000e+00
    endloop
  endfacet
  facet normal 0.000000e+00 0.000000e+00 1.000000e+00
    outer loop
      vertex   -1.678906e+02 1.054060e+02 1.500000e+00
      vertex   -1.689511e+02 1.054044e+02 1.500000e+00
      vertex   -1.696905e+02 1.032102e+02 1.500000e+00
    endloop
  endfacet
  facet normal 0.000000e+00 0.000000e+00 1.000000e+00
    outer loop
      vertex   -1.686382e+02 1.032112e+02 1.500000e+00
      vertex   -1.696905e+02 1.032102e+02 1.500000e+00
      vertex   -1.703807e+02 1.010000e+02 1.500000e+00
    endloop
  endfacet
  facet normal 0.000000e+00 -0.000000e+00 1.000000e+00
    outer loop
      vertex   -1.693362e+02 1.010000e+02 1.500000e+00
      vertex   -1.686382e+02 1.032112e+02 1.500000e+00
      vertex   -1.703807e+02 1.010000e+02 1.500000e+00
    endloop
  endfacet
  facet normal -0.000000e+00 0.000000e+00 1.000000e+00
    outer loop
      vertex   -1.653529e+02 1.118815e+02 1.500000e+00
      vertex   -1.673262e+02 1.097407e+02 1.500000e+00
      vertex   -1.662475e+02 1.097423e+02 1.500000e+00
    endloop
  endfacet
  facet normal -0.000000e+00 0.000000e+00 1.000000e+00
    outer loop
      vertex   -1.662475e+02 1.097423e+02 1.500000e+00
      vertex   -1.681628e+02 1.075816e+02 1.500000e+00
      vertex   -1.670935e+02 1.075835e+02 1.500000e+00
    endloop
  endfacet
  facet normal -0.000000e+00 0.000000e+00 1.000000e+00
    outer loop
      vertex   -1.670935e+02 1.075835e+02 1.500000e+00
      vertex   -1.689511e+02 1.054044e+02 1.500000e+00
      vertex   -1.678906e+02 1.054060e+02 1.500000e+00
    endloop
  endfacet
  facet normal -0.000000e+00 0.000000e+00 1.000000e+00
    outer loop
      vertex   -1.678906e+02 1.054060e+02 1.500000e+00
      vertex   -1.696905e+02 1.032102e+02 1.500000e+00
      vertex   -1.686382e+02 1.032112e+02 1.500000e+00
    endloop
  endfacet
  facet normal 9.107211e-01 -4.130218e-01 0.000000e+00
    outer loop
      vertex   -1.654888e+02 1.140452e+02 1.454812e+00
      vertex   -1.654888e+02 1.140452e+02 7.545188e+00
      vertex   -1.655093e+02 1.140000e+02 1.500000e+00
    endloop
  endfacet
  facet normal 9.107211e-01 -4.130218e-01 0.000000e+00
    outer loop
      vertex   -1.655093e+02 1.140000e+02 1.500000e+00
      vertex   -1.654888e+02 1.140452e+02 7.545188e+00
      vertex   -1.655093e+02 1.140000e+02 7.500000e+00
    endloop
  endfacet
  facet normal 9.119058e-01 -4.103996e-01 0.000000e+00
    outer loop
      vertex   -1.657338e+02 1.135012e+02 7.500000e+00
      vertex   -1.655093e+02 1.140000e+02 1.500000e+00
      vertex   -1.655093e+02 1.140000e+02 7.500000e+00
    endloop
  endfacet
  facet normal 9.140584e-01 -4.055824e-01 4.810269e-04
    outer loop
      vertex   -1.657338e+02 1.135012e+02 7.500000e+00
      vertex   -1.659556e+02 1.130012e+02 7.500000e+00
      vertex   -1.655093e+02 1.140000e+02 1.500000e+00
    endloop
  endfacet
  facet normal 9.153724e-01 -4.026068e-01 1.074128e-03
    outer loop
      vertex   -1.655093e+02 1.140000e+02 1.500000e+00
      vertex   -1.659556e+02 1.130012e+02 7.500000e+00
      vertex   -1.664415e+02 1.118805e+02 1.500000e+00
    endloop
  endfacet
  facet normal 9.161855e-01 -4.007540e-01 6.622029e-04
    outer loop
      vertex   -1.664415e+02 1.118805e+02 1.500000e+00
      vertex   -1.659556e+02 1.130012e+02 7.500000e+00
      vertex   -1.661749e+02 1.125000e+02 7.500000e+00
    endloop
  endfacet
  facet normal 9.185306e-01 -3.953500e-01 0.000000e+00
    outer loop
      vertex   -1.661749e+02 1.125000e+02 8.500000e+00
      vertex   -1.664415e+02 1.118805e+02 1.500000e+00
      vertex   -1.661749e+02 1.125000e+02 7.500000e+00
    endloop
  endfacet
  facet normal 9.214648e-01 -3.884612e-01 -7.214525e-04
    outer loop
      vertex   -1.661749e+02 1.125000e+02 8.500000e+00
      vertex   -1.670400e+02 1.104479e+02 8.500000e+00
      vertex   -1.664415e+02 1.118805e+02 1.500000e+00
    endloop
  endfacet
  facet normal 9.241355e-01 -3.820641e-01 8.160821e-04
    outer loop
      vertex   -1.664415e+02 1.118805e+02 1.500000e+00
      vertex   -1.670400e+02 1.104479e+02 8.500000e+00
      vertex   -1.673262e+02 1.097407e+02 1.500000e+00
    endloop
  endfacet
  facet normal 9.295960e-01 -3.685792e-01 -7.695817e-04
    outer loop
      vertex   -1.673262e+02 1.097407e+02 1.500000e+00
      vertex   -1.670400e+02 1.104479e+02 8.500000e+00
      vertex   -1.678608e+02 1.083777e+02 8.500000e+00
    endloop
  endfacet
  facet normal 9.372984e-01 -3.485271e-01 -8.069265e-04
    outer loop
      vertex   -1.681628e+02 1.075816e+02 1.500000e+00
      vertex   -1.678608e+02 1.083777e+02 8.500000e+00
      vertex   -1.686370e+02 1.062903e+02 8.500000e+00
    endloop
  endfacet
  facet normal 9.445682e-01 -3.283142e-01 -8.334871e-04
    outer loop
      vertex   -1.689511e+02 1.054044e+02 1.500000e+00
      vertex   -1.686370e+02 1.062903e+02 8.500000e+00
      vertex   -1.693681e+02 1.041867e+02 8.500000e+00
    endloop
  endfacet
  facet normal 9.514022e-01 -3.079498e-01 -8.492632e-04
    outer loop
      vertex   -1.696905e+02 1.032102e+02 1.500000e+00
      vertex   -1.693681e+02 1.041867e+02 8.500000e+00
      vertex   -1.700539e+02 1.020679e+02 8.500000e+00
    endloop
  endfacet
  facet normal 9.529181e-01 -3.032278e-01 0.000000e+00
    outer loop
      vertex   -1.700539e+02 1.020679e+02 8.000000e+00
      vertex   -1.696905e+02 1.032102e+02 1.500000e+00
      vertex   -1.700539e+02 1.020679e+02 8.500000e+00
    endloop
  endfacet
  facet normal 9.545370e-01 -2.980908e-01 9.932721e-04
    outer loop
      vertex   -1.700539e+02 1.020679e+02 8.000000e+00
      vertex   -1.703807e+02 1.010000e+02 1.500000e+00
      vertex   -1.696905e+02 1.032102e+02 1.500000e+00
    endloop
  endfacet
  facet normal 9.552372e-01 -2.958404e-01 5.883409e-04
    outer loop
      vertex   -1.700539e+02 1.020679e+02 8.000000e+00
      vertex   -1.702085e+02 1.015679e+02 7.500000e+00
      vertex   -1.703807e+02 1.010000e+02 1.500000e+00
    endloop
  endfacet
  facet normal 9.564248e-01 -2.919788e-01 1.887334e-04
    outer loop
      vertex   -1.703807e+02 1.010000e+02 1.500000e+00
      vertex   -1.702085e+02 1.015679e+02 7.500000e+00
      vertex   -1.702662e+02 1.013787e+02 7.500000e+00
    endloop
  endfacet
  facet normal 9.569802e-01 -2.901533e-01 6.291120e-05
    outer loop
      vertex   -1.703236e+02 1.011894e+02 7.500000e+00
      vertex   -1.703807e+02 1.010000e+02 1.500000e+00
      vertex   -1.702662e+02 1.013787e+02 7.500000e+00
    endloop
  endfacet
  facet normal 9.575321e-01 -2.883268e-01 0.000000e+00
    outer loop
      vertex   -1.703236e+02 1.011894e+02 7.500000e+00
      vertex   -1.703807e+02 1.010000e+02 7.500000e+00
      vertex   -1.703807e+02 1.010000e+02 1.500000e+00
    endloop
  endfacet
  facet normal 9.324374e-01 -3.613307e-01 8.588191e-04
    outer loop
      vertex   -1.673262e+02 1.097407e+02 1.500000e+00
      vertex   -1.678608e+02 1.083777e+02 8.500000e+00
      vertex   -1.681628e+02 1.075816e+02 1.500000e+00
    endloop
  endfacet
  facet normal 9.402742e-01 -3.404170e-01 8.907718e-04
    outer loop
      vertex   -1.681628e+02 1.075816e+02 1.500000e+00
      vertex   -1.686370e+02 1.062903e+02 8.500000e+00
      vertex   -1.689511e+02 1.054044e+02 1.500000e+00
    endloop
  endfacet
  facet normal 9.476420e-01 -3.193335e-01 9.119401e-04
    outer loop
      vertex   -1.689511e+02 1.054044e+02 1.500000e+00
      vertex   -1.693681e+02 1.041867e+02 8.500000e+00
      vertex   -1.696905e+02 1.032102e+02 1.500000e+00
    endloop
  endfacet
  facet normal -0.000000e+00 1.000000e+00 5.684342e-14
    outer loop
      vertex   -1.674778e+02 1.145000e+02 8.500000e+00
      vertex   -1.619689e+02 1.145000e+02 8.500000e+00
      vertex   -1.636794e+02 1.145000e+02 8.000000e+00
    endloop
  endfacet
  facet normal 0.000000e+00 1.000000e+00 5.684342e-14
    outer loop
      vertex   -1.657811e+02 1.145000e+02 8.000000e+00
      vertex   -1.674778e+02 1.145000e+02 8.500000e+00
      vertex   -1.636794e+02 1.145000e+02 8.000000e+00
    endloop
  endfacet
  facet normal -1.675057e-14 1.000000e+00 0.000000e+00
    outer loop
      vertex   -1.657811e+02 1.145000e+02 8.000000e+00
      vertex   -1.657811e+02 1.145000e+02 1.000000e+00
      vertex   -1.674778e+02 1.145000e+02 8.500000e+00
    endloop
  endfacet
  facet normal -1.675057e-14 1.000000e+00 0.000000e+00
    outer loop
      vertex   -1.674778e+02 1.145000e+02 8.500000e+00
      vertex   -1.657811e+02 1.145000e+02 1.000000e+00
      vertex   -1.674778e+02 1.145000e+02 5.000000e-01
    endloop
  endfacet
  facet normal 0.000000e+00 1.000000e+00 -5.684342e-14
    outer loop
      vertex   -1.674778e+02 1.145000e+02 5.000000e-01
      vertex   -1.657811e+02 1.145000e+02 1.000000e+00
      vertex   -1.636794e+02 1.145000e+02 1.000000e+00
    endloop
  endfacet
  facet normal 1.661634e-14 1.000000e+00 -0.000000e+00
    outer loop
      vertex   -1.619689e+02 1.145000e+02 5.000000e-01
      vertex   -1.636794e+02 1.145000e+02 1.000000e+00
      vertex   -1.636794e+02 1.145000e+02 8.000000e+00
    endloop
  endfacet
  facet normal 1.661634e-14 1.000000e+00 0.000000e+00
    outer loop
      vertex   -1.619689e+02 1.145000e+02 8.500000e+00
      vertex   -1.619689e+02 1.145000e+02 5.000000e-01
      vertex   -1.636794e+02 1.145000e+02 8.000000e+00
    endloop
  endfacet
  facet normal 0.000000e+00 1.000000e+00 -5.684342e-14
    outer loop
      vertex   -1.619689e+02 1.145000e+02 5.000000e-01
      vertex   -1.674778e+02 1.145000e+02 5.000000e-01
      vertex   -1.636794e+02 1.145000e+02 1.000000e+00
    endloop
  endfacet
  facet normal -5.333312e-01 -8.459065e-01 0.000000e+00
    outer loop
      vertex   -1.633941e+02 8.550000e+01 1.000000e+00
      vertex   -1.633941e+02 8.550000e+01 8.000000e+00
      vertex   -1.641096e+02 8.595115e+01 1.451148e+00
    endloop
  endfacet
  facet normal -5.333312e-01 -8.459065e-01 0.000000e+00
    outer loop
      vertex   -1.641096e+02 8.595115e+01 1.451148e+00
      vertex   -1.633941e+02 8.550000e+01 8.000000e+00
      vertex   -1.641096e+02 8.595115e+01 7.548852e+00
    endloop
  endfacet
  facet normal -0.000000e+00 -7.071068e-01 -7.071068e-01
    outer loop
      vertex   -1.633941e+02 8.550000e+01 8.000000e+00
      vertex   -1.655024e+02 8.550000e+01 8.000000e+00
      vertex   -1.641096e+02 8.595115e+01 7.548852e+00
    endloop
  endfacet
  facet normal -6.196255e-15 -7.071068e-01 -7.071068e-01
    outer loop
      vertex   -1.641096e+02 8.595115e+01 7.548852e+00
      vertex   -1.655024e+02 8.550000e+01 8.000000e+00
      vertex   -1.652160e+02 8.595211e+01 7.547889e+00
    endloop
  endfacet
  facet normal 0.000000e+00 -7.071068e-01 -7.071068e-01
    outer loop
      vertex   -1.641328e+02 8.600000e+01 7.500000e+00
      vertex   -1.652160e+02 8.595211e+01 7.547889e+00
      vertex   -1.652384e+02 8.600000e+01 7.500000e+00
    endloop
  endfacet
  facet normal -6.202311e-15 -7.071068e-01 -7.071068e-01
    outer loop
      vertex   -1.641328e+02 8.600000e+01 7.500000e+00
      vertex   -1.641096e+02 8.595115e+01 7.548852e+00
      vertex   -1.652160e+02 8.595211e+01 7.547889e+00
    endloop
  endfacet
  facet normal 8.447081e-01 -5.352272e-01 0.000000e+00
    outer loop
      vertex   -1.652160e+02 8.595211e+01 1.452111e+00
      vertex   -1.652160e+02 8.595211e+01 7.547889e+00
      vertex   -1.655024e+02 8.550000e+01 1.000000e+00
    endloop
  endfacet
  facet normal 8.447081e-01 -5.352272e-01 0.000000e+00
    outer loop
      vertex   -1.655024e+02 8.550000e+01 1.000000e+00
      vertex   -1.652160e+02 8.595211e+01 7.547889e+00
      vertex   -1.655024e+02 8.550000e+01 8.000000e+00
    endloop
  endfacet
  facet normal 0.000000e+00 -7.071068e-01 7.071068e-01
    outer loop
      vertex   -1.633941e+02 8.550000e+01 1.000000e+00
      vertex   -1.641096e+02 8.595115e+01 1.451148e+00
      vertex   -1.655024e+02 8.550000e+01 1.000000e+00
    endloop
  endfacet
  facet normal -6.780217e-15 -7.071068e-01 7.071068e-01
    outer loop
      vertex   -1.655024e+02 8.550000e+01 1.000000e+00
      vertex   -1.641096e+02 8.595115e+01 1.451148e+00
      vertex   -1.652160e+02 8.595211e+01 1.452111e+00
    endloop
  endfacet
  facet normal -6.761884e-15 -7.071068e-01 7.071068e-01
    outer loop
      vertex   -1.652160e+02 8.595211e+01 1.452111e+00
      vertex   -1.641096e+02 8.595115e+01 1.451148e+00
      vertex   -1.641328e+02 8.600000e+01 1.500000e+00
    endloop
  endfacet
  facet normal 0.000000e+00 -7.071068e-01 7.071068e-01
    outer loop
      vertex   -1.652384e+02 8.600000e+01 1.500000e+00
      vertex   -1.652160e+02 8.595211e+01 1.452111e+00
      vertex   -1.641328e+02 8.600000e+01 1.500000e+00
    endloop
  endfacet
  facet normal -9.034255e-01 -4.287451e-01 0.000000e+00
    outer loop
      vertex   -1.641096e+02 8.595115e+01 1.451148e+00
      vertex   -1.641096e+02 8.595115e+01 7.548852e+00
      vertex   -1.641328e+02 8.600000e+01 1.500000e+00
    endloop
  endfacet
  facet normal -9.034255e-01 -4.287451e-01 0.000000e+00
    outer loop
      vertex   -1.641328e+02 8.600000e+01 1.500000e+00
      vertex   -1.641096e+02 8.595115e+01 7.548852e+00
      vertex   -1.641328e+02 8.600000e+01 7.500000e+00
    endloop
  endfacet
  facet normal -9.046519e-01 -4.261514e-01 0.000000e+00
    outer loop
      vertex   -1.643678e+02 8.649878e+01 7.500000e+00
      vertex   -1.641328e+02 8.600000e+01 1.500000e+00
      vertex   -1.641328e+02 8.600000e+01 7.500000e+00
    endloop
  endfacet
  facet normal -9.068663e-01 -4.214182e-01 -4.801881e-04
    outer loop
      vertex   -1.643678e+02 8.649878e+01 7.500000e+00
      vertex   -1.646001e+02 8.699879e+01 7.500000e+00
      vertex   -1.641328e+02 8.600000e+01 1.500000e+00
    endloop
  endfacet
  facet normal -9.082143e-01 -4.185041e-01 -1.070275e-03
    outer loop
      vertex   -1.641328e+02 8.600000e+01 1.500000e+00
      vertex   -1.646001e+02 8.699879e+01 7.500000e+00
      vertex   -1.651086e+02 8.811756e+01 1.500000e+00
    endloop
  endfacet
  facet normal -9.090559e-01 -4.166736e-01 -6.576207e-04
    outer loop
      vertex   -1.651086e+02 8.811756e+01 1.500000e+00
      vertex   -1.646001e+02 8.699879e+01 7.500000e+00
      vertex   -1.648299e+02 8.750000e+01 7.500000e+00
    endloop
  endfacet
  facet normal -9.114672e-01 -4.113727e-01 0.000000e+00
    outer loop
      vertex   -1.648299e+02 8.750000e+01 8.500000e+00
      vertex   -1.651086e+02 8.811756e+01 1.500000e+00
      vertex   -1.648299e+02 8.750000e+01 7.500000e+00
    endloop
  endfacet
  facet normal -9.145474e-01 -4.044780e-01 7.309157e-04
    outer loop
      vertex   -1.648299e+02 8.750000e+01 8.500000e+00
      vertex   -1.657485e+02 8.957696e+01 8.500000e+00
      vertex   -1.651086e+02 8.811756e+01 1.500000e+00
    endloop
  endfacet
  facet normal -9.172402e-01 -3.983337e-01 -7.962280e-04
    outer loop
      vertex   -1.651086e+02 8.811756e+01 1.500000e+00
      vertex   -1.657485e+02 8.957696e+01 8.500000e+00
      vertex   -1.660373e+02 9.025617e+01 1.500000e+00
    endloop
  endfacet
  facet normal -9.230411e-01 -3.847006e-01 7.659769e-04
    outer loop
      vertex   -1.660373e+02 9.025617e+01 1.500000e+00
      vertex   -1.657485e+02 8.957696e+01 8.500000e+00
      vertex   -1.666221e+02 9.167321e+01 8.500000e+00
    endloop
  endfacet
  facet normal -9.311071e-01 -3.647451e-01 7.960751e-04
    outer loop
      vertex   -1.669186e+02 9.241477e+01 1.500000e+00
      vertex   -1.666221e+02 9.167321e+01 8.500000e+00
      vertex   -1.674505e+02 9.378778e+01 8.500000e+00
    endloop
  endfacet
  facet normal -9.387417e-01 -3.446205e-01 8.212104e-04
    outer loop
      vertex   -1.677519e+02 9.459232e+01 1.500000e+00
      vertex   -1.674505e+02 9.378778e+01 8.500000e+00
      vertex   -1.682331e+02 9.591968e+01 8.500000e+00
    endloop
  endfacet
  facet normal -9.459415e-01 -3.243363e-01 8.413827e-04
    outer loop
      vertex   -1.685370e+02 9.678776e+01 1.500000e+00
      vertex   -1.682331e+02 9.591968e+01 8.500000e+00
      vertex   -1.689697e+02 9.806794e+01 8.500000e+00
    endloop
  endfacet
  facet normal -9.473464e-01 -3.202105e-01 0.000000e+00
    outer loop
      vertex   -1.689697e+02 9.806794e+01 8.000000e+00
      vertex   -1.685370e+02 9.678776e+01 1.500000e+00
      vertex   -1.689697e+02 9.806794e+01 8.500000e+00
    endloop
  endfacet
  facet normal -9.488232e-01 -3.158062e-01 -9.657513e-04
    outer loop
      vertex   -1.689697e+02 9.806794e+01 8.000000e+00
      vertex   -1.692733e+02 9.900000e+01 1.500000e+00
      vertex   -1.685370e+02 9.678776e+01 1.500000e+00
    endloop
  endfacet
  facet normal -9.500456e-01 -3.121108e-01 -3.787574e-04
    outer loop
      vertex   -1.689697e+02 9.806794e+01 8.000000e+00
      vertex   -1.691337e+02 9.856794e+01 7.500000e+00
      vertex   -1.692733e+02 9.900000e+01 1.500000e+00
    endloop
  endfacet
  facet normal -9.511541e-01 -3.087164e-01 -1.085460e-04
    outer loop
      vertex   -1.692733e+02 9.900000e+01 1.500000e+00
      vertex   -1.691337e+02 9.856794e+01 7.500000e+00
      vertex   -1.691805e+02 9.871189e+01 7.500000e+00
    endloop
  endfacet
  facet normal -9.515960e-01 -3.073517e-01 -3.618201e-05
    outer loop
      vertex   -1.692270e+02 9.885591e+01 7.500000e+00
      vertex   -1.692733e+02 9.900000e+01 1.500000e+00
      vertex   -1.691805e+02 9.871189e+01 7.500000e+00
    endloop
  endfacet
  facet normal -9.520359e-01 -3.059864e-01 -0.000000e+00
    outer loop
      vertex   -1.692270e+02 9.885591e+01 7.500000e+00
      vertex   -1.692733e+02 9.900000e+01 7.500000e+00
      vertex   -1.692733e+02 9.900000e+01 1.500000e+00
    endloop
  endfacet
  facet normal -9.258180e-01 -3.779686e-01 -8.288077e-04
    outer loop
      vertex   -1.660373e+02 9.025617e+01 1.500000e+00
      vertex   -1.666221e+02 9.167321e+01 8.500000e+00
      vertex   -1.669186e+02 9.241477e+01 1.500000e+00
    endloop
  endfacet
  facet normal -9.339438e-01 -3.574190e-01 -8.564245e-04
    outer loop
      vertex   -1.669186e+02 9.241477e+01 1.500000e+00
      vertex   -1.674505e+02 9.378778e+01 8.500000e+00
      vertex   -1.677519e+02 9.459232e+01 1.500000e+00
    endloop
  endfacet
  facet normal -9.416134e-01 -3.366948e-01 -8.790783e-04
    outer loop
      vertex   -1.677519e+02 9.459232e+01 1.500000e+00
      vertex   -1.682331e+02 9.591968e+01 8.500000e+00
      vertex   -1.685370e+02 9.678776e+01 1.500000e+00
    endloop
  endfacet
  facet normal 0.000000e+00 0.000000e+00 -1.000000e+00
    outer loop
      vertex   -1.652384e+02 8.600000e+01 7.500000e+00
      vertex   -1.654707e+02 8.649881e+01 7.500000e+00
      vertex   -1.641328e+02 8.600000e+01 7.500000e+00
    endloop
  endfacet
  facet normal 0.000000e+00 0.000000e+00 -1.000000e+00
    outer loop
      vertex   -1.641328e+02 8.600000e+01 7.500000e+00
      vertex   -1.654707e+02 8.649881e+01 7.500000e+00
      vertex   -1.643678e+02 8.649878e+01 7.500000e+00
    endloop
  endfacet
  facet normal 0.000000e+00 0.000000e+00 -1.000000e+00
    outer loop
      vertex   -1.643678e+02 8.649878e+01 7.500000e+00
      vertex   -1.654707e+02 8.649881e+01 7.500000e+00
      vertex   -1.657004e+02 8.699882e+01 7.500000e+00
    endloop
  endfacet
  facet normal 0.000000e+00 0.000000e+00 -1.000000e+00
    outer loop
      vertex   -1.646001e+02 8.699879e+01 7.500000e+00
      vertex   -1.657004e+02 8.699882e+01 7.500000e+00
      vertex   -1.659275e+02 8.750000e+01 7.500000e+00
    endloop
  endfacet
  facet normal -0.000000e+00 -0.000000e+00 -1.000000e+00
    outer loop
      vertex   -1.648299e+02 8.750000e+01 7.500000e+00
      vertex   -1.646001e+02 8.699879e+01 7.500000e+00
      vertex   -1.659275e+02 8.750000e+01 7.500000e+00
    endloop
  endfacet
  facet normal 0.000000e+00 0.000000e+00 -1.000000e+00
    outer loop
      vertex   -1.643678e+02 8.649878e+01 7.500000e+00
      vertex   -1.657004e+02 8.699882e+01 7.500000e+00
      vertex   -1.646001e+02 8.699879e+01 7.500000e+00
    endloop
  endfacet
  facet normal 0.000000e+00 -1.000000e+00 0.000000e+00
    outer loop
      vertex   -1.672121e+02 8.550000e+01 5.000000e-01
      vertex   -1.616700e+02 8.550000e+01 5.000000e-01
      vertex   -1.633941e+02 8.550000e+01 1.000000e+00
    endloop
  endfacet
  facet normal 0.000000e+00 -1.000000e+00 -0.000000e+00
    outer loop
      vertex   -1.655024e+02 8.550000e+01 1.000000e+00
      vertex   -1.672121e+02 8.550000e+01 5.000000e-01
      vertex   -1.633941e+02 8.550000e+01 1.000000e+00
    endloop
  endfacet
  facet normal -0.000000e+00 -1.000000e+00 0.000000e+00
    outer loop
      vertex   -1.655024e+02 8.550000e+01 1.000000e+00
      vertex   -1.655024e+02 8.550000e+01 8.000000e+00
      vertex   -1.672121e+02 8.550000e+01 5.000000e-01
    endloop
  endfacet
  facet normal 0.000000e+00 -1.000000e+00 0.000000e+00
    outer loop
      vertex   -1.672121e+02 8.550000e+01 5.000000e-01
      vertex   -1.655024e+02 8.550000e+01 8.000000e+00
      vertex   -1.672121e+02 8.550000e+01 8.500000e+00
    endloop
  endfacet
  facet normal 0.000000e+00 -1.000000e+00 0.000000e+00
    outer loop
      vertex   -1.672121e+02 8.550000e+01 8.500000e+00
      vertex   -1.655024e+02 8.550000e+01 8.000000e+00
      vertex   -1.633941e+02 8.550000e+01 8.000000e+00
    endloop
  endfacet
  facet normal 0.000000e+00 -1.000000e+00 -0.000000e+00
    outer loop
      vertex   -1.616700e+02 8.550000e+01 8.500000e+00
      vertex   -1.633941e+02 8.550000e+01 8.000000e+00
      vertex   -1.633941e+02 8.550000e+01 1.000000e+00
    endloop
  endfacet
  facet normal -0.000000e+00 -1.000000e+00 0.000000e+00
    outer loop
      vertex   -1.616700e+02 8.550000e+01 5.000000e-01
      vertex   -1.616700e+02 8.550000e+01 8.500000e+00
      vertex   -1.633941e+02 8.550000e+01 1.000000e+00
    endloop
  endfacet
  facet normal -0.000000e+00 -1.000000e+00 -0.000000e+00
    outer loop
      vertex   -1.616700e+02 8.550000e+01 8.500000e+00
      vertex   -1.672121e+02 8.550000e+01 8.500000e+00
      vertex   -1.633941e+02 8.550000e+01 8.000000e+00
    endloop
  endfacet
  facet normal 0.000000e+00 -7.071068e-01 -7.071068e-01
    outer loop
      vertex   -1.701848e+02 9.856794e+01 7.500000e+00
      vertex   -1.691337e+02 9.856794e+01 7.500000e+00
      vertex   -1.700225e+02 9.806794e+01 8.000000e+00
    endloop
  endfacet
  facet normal 0.000000e+00 -7.071068e-01 -7.071068e-01
    outer loop
      vertex   -1.700225e+02 9.806794e+01 8.000000e+00
      vertex   -1.691337e+02 9.856794e+01 7.500000e+00
      vertex   -1.689697e+02 9.806794e+01 8.000000e+00
    endloop
  endfacet
  facet normal 0.000000e+00 0.000000e+00 -1.000000e+00
    outer loop
      vertex   -1.691337e+02 9.856794e+01 7.500000e+00
      vertex   -1.701848e+02 9.856794e+01 7.500000e+00
      vertex   -1.691805e+02 9.871189e+01 7.500000e+00
    endloop
  endfacet
  facet normal -0.000000e+00 0.000000e+00 -1.000000e+00
    outer loop
      vertex   -1.691805e+02 9.871189e+01 7.500000e+00
      vertex   -1.701848e+02 9.856794e+01 7.500000e+00
      vertex   -1.692270e+02 9.885591e+01 7.500000e+00
    endloop
  endfacet
  facet normal -0.000000e+00 0.000000e+00 -1.000000e+00
    outer loop
      vertex   -1.692270e+02 9.885591e+01 7.500000e+00
      vertex   -1.701848e+02 9.856794e+01 7.500000e+00
      vertex   -1.702311e+02 9.871189e+01 7.500000e+00
    endloop
  endfacet
  facet normal 0.000000e+00 -0.000000e+00 -1.000000e+00
    outer loop
      vertex   -1.702771e+02 9.885591e+01 7.500000e+00
      vertex   -1.692270e+02 9.885591e+01 7.500000e+00
      vertex   -1.702311e+02 9.871189e+01 7.500000e+00
    endloop
  endfacet
  facet normal 0.000000e+00 0.000000e+00 -1.000000e+00
    outer loop
      vertex   -1.702771e+02 9.885591e+01 7.500000e+00
      vertex   -1.692733e+02 9.900000e+01 7.500000e+00
      vertex   -1.692270e+02 9.885591e+01 7.500000e+00
    endloop
  endfacet
  facet normal 0.000000e+00 0.000000e+00 -1.000000e+00
    outer loop
      vertex   -1.702771e+02 9.885591e+01 7.500000e+00
      vertex   -1.703229e+02 9.900000e+01 7.500000e+00
      vertex   -1.692733e+02 9.900000e+01 7.500000e+00
    endloop
  endfacet
  facet normal 0.000000e+00 7.071068e-01 -7.071068e-01
    outer loop
      vertex   -1.690059e+02 1.020679e+02 8.000000e+00
      vertex   -1.691621e+02 1.015679e+02 7.500000e+00
      vertex   -1.700539e+02 1.020679e+02 8.000000e+00
    endloop
  endfacet
  facet normal 0.000000e+00 7.071068e-01 -7.071068e-01
    outer loop
      vertex   -1.700539e+02 1.020679e+02 8.000000e+00
      vertex   -1.691621e+02 1.015679e+02 7.500000e+00
      vertex   -1.702085e+02 1.015679e+02 7.500000e+00
    endloop
  endfacet
  facet normal -0.000000e+00 0.000000e+00 -1.000000e+00
    outer loop
      vertex   -1.691621e+02 1.015679e+02 7.500000e+00
      vertex   -1.692205e+02 1.013787e+02 7.500000e+00
      vertex   -1.702085e+02 1.015679e+02 7.500000e+00
    endloop
  endfacet
  facet normal 0.000000e+00 -0.000000e+00 -1.000000e+00
    outer loop
      vertex   -1.702085e+02 1.015679e+02 7.500000e+00
      vertex   -1.692205e+02 1.013787e+02 7.500000e+00
      vertex   -1.702662e+02 1.013787e+02 7.500000e+00
    endloop
  endfacet
  facet normal 0.000000e+00 -0.000000e+00 -1.000000e+00
    outer loop
      vertex   -1.702662e+02 1.013787e+02 7.500000e+00
      vertex   -1.692205e+02 1.013787e+02 7.500000e+00
      vertex   -1.692785e+02 1.011894e+02 7.500000e+00
    endloop
  endfacet
  facet normal 0.000000e+00 -0.000000e+00 -1.000000e+00
    outer loop
      vertex   -1.703236e+02 1.011894e+02 7.500000e+00
      vertex   -1.692785e+02 1.011894e+02 7.500000e+00
      vertex   -1.693362e+02 1.010000e+02 7.500000e+00
    endloop
  endfacet
  facet normal 0.000000e+00 0.000000e+00 -1.000000e+00
    outer loop
      vertex   -1.703807e+02 1.010000e+02 7.500000e+00
      vertex   -1.703236e+02 1.011894e+02 7.500000e+00
      vertex   -1.693362e+02 1.010000e+02 7.500000e+00
    endloop
  endfacet
  facet normal 0.000000e+00 -0.000000e+00 -1.000000e+00
    outer loop
      vertex   -1.702662e+02 1.013787e+02 7.500000e+00
      vertex   -1.692785e+02 1.011894e+02 7.500000e+00
      vertex   -1.703236e+02 1.011894e+02 7.500000e+00
    endloop
  endfacet
  facet normal 0.000000e+00 -1.000000e+00 0.000000e+00
    outer loop
      vertex   -1.703229e+02 9.900000e+01 7.500000e+00
      vertex   -1.703229e+02 9.900000e+01 1.500000e+00
      vertex   -1.692733e+02 9.900000e+01 7.500000e+00
    endloop
  endfacet
  facet normal 0.000000e+00 -1.000000e+00 -0.000000e+00
    outer loop
      vertex   -1.692733e+02 9.900000e+01 7.500000e+00
      vertex   -1.703229e+02 9.900000e+01 1.500000e+00
      vertex   -1.692733e+02 9.900000e+01 1.500000e+00
    endloop
  endfacet
  facet normal 0.000000e+00 1.000000e+00 0.000000e+00
    outer loop
      vertex   -1.693362e+02 1.010000e+02 7.500000e+00
      vertex   -1.693362e+02 1.010000e+02 1.500000e+00
      vertex   -1.703807e+02 1.010000e+02 7.500000e+00
    endloop
  endfacet
  facet normal 0.000000e+00 1.000000e+00 0.000000e+00
    outer loop
      vertex   -1.703807e+02 1.010000e+02 7.500000e+00
      vertex   -1.693362e+02 1.010000e+02 1.500000e+00
      vertex   -1.703807e+02 1.010000e+02 1.500000e+00
    endloop
  endfacet
  facet normal 9.053270e-01 4.247153e-01 0.000000e+00
    outer loop
      vertex   -1.652160e+02 8.595211e+01 7.547889e+00
      vertex   -1.652160e+02 8.595211e+01 1.452111e+00
      vertex   -1.652384e+02 8.600000e+01 7.500000e+00
    endloop
  endfacet
  facet normal 9.053270e-01 4.247153e-01 0.000000e+00
    outer loop
      vertex   -1.652384e+02 8.600000e+01 7.500000e+00
      vertex   -1.652160e+02 8.595211e+01 1.452111e+00
      vertex   -1.652384e+02 8.600000e+01 1.500000e+00
    endloop
  endfacet
  facet normal 9.086945e-01 4.174614e-01 4.737674e-04
    outer loop
      vertex   -1.654707e+02 8.649881e+01 7.500000e+00
      vertex   -1.652384e+02 8.600000e+01 1.500000e+00
      vertex   -1.657004e+02 8.699882e+01 7.500000e+00
    endloop
  endfacet
  facet normal 9.065259e-01 4.221502e-01 0.000000e+00
    outer loop
      vertex   -1.654707e+02 8.649881e+01 7.500000e+00
      vertex   -1.652384e+02 8.600000e+01 7.500000e+00
      vertex   -1.652384e+02 8.600000e+01 1.500000e+00
    endloop
  endfacet
  facet normal 9.100171e-01 4.145694e-01 1.057031e-03
    outer loop
      vertex   -1.652384e+02 8.600000e+01 1.500000e+00
      vertex   -1.662036e+02 8.811862e+01 1.500000e+00
      vertex   -1.657004e+02 8.699882e+01 7.500000e+00
    endloop
  endfacet
  facet normal 9.108390e-01 4.127614e-01 6.506726e-04
    outer loop
      vertex   -1.657004e+02 8.699882e+01 7.500000e+00
      vertex   -1.662036e+02 8.811862e+01 1.500000e+00
      vertex   -1.659275e+02 8.750000e+01 7.500000e+00
    endloop
  endfacet
  facet normal 9.132028e-01 4.075054e-01 0.000000e+00
    outer loop
      vertex   -1.659275e+02 8.750000e+01 7.500000e+00
      vertex   -1.662036e+02 8.811862e+01 1.500000e+00
      vertex   -1.659275e+02 8.750000e+01 8.500000e+00
    endloop
  endfacet
  facet normal 9.162194e-01 4.006763e-01 -7.224851e-04
    outer loop
      vertex   -1.659275e+02 8.750000e+01 8.500000e+00
      vertex   -1.662036e+02 8.811862e+01 1.500000e+00
      vertex   -1.668362e+02 8.957775e+01 8.500000e+00
    endloop
  endfacet
  facet normal 9.188610e-01 3.945805e-01 7.868755e-04
    outer loop
      vertex   -1.668362e+02 8.957775e+01 8.500000e+00
      vertex   -1.662036e+02 8.811862e+01 1.500000e+00
      vertex   -1.671222e+02 9.025784e+01 1.500000e+00
    endloop
  endfacet
  facet normal 9.272657e-01 3.744030e-01 8.189500e-04
    outer loop
      vertex   -1.677004e+02 9.167437e+01 8.500000e+00
      vertex   -1.671222e+02 9.025784e+01 1.500000e+00
      vertex   -1.679939e+02 9.241662e+01 1.500000e+00
    endloop
  endfacet
  facet normal 9.352274e-01 3.540466e-01 8.461356e-04
    outer loop
      vertex   -1.685197e+02 9.378892e+01 8.500000e+00
      vertex   -1.679939e+02 9.241662e+01 1.500000e+00
      vertex   -1.688181e+02 9.459393e+01 1.500000e+00
    endloop
  endfacet
  facet normal 9.427423e-01 3.335210e-01 8.684322e-04
    outer loop
      vertex   -1.692939e+02 9.592043e+01 8.500000e+00
      vertex   -1.688181e+02 9.459393e+01 1.500000e+00
      vertex   -1.695946e+02 9.678874e+01 1.500000e+00
    endloop
  endfacet
  facet normal 9.483589e-01 3.171994e-01 0.000000e+00
    outer loop
      vertex   -1.700225e+02 9.806794e+01 8.500000e+00
      vertex   -1.695946e+02 9.678874e+01 1.500000e+00
      vertex   -1.700225e+02 9.806794e+01 8.000000e+00
    endloop
  endfacet
  facet normal 9.469814e-01 3.212873e-01 -8.312273e-04
    outer loop
      vertex   -1.700225e+02 9.806794e+01 8.500000e+00
      vertex   -1.692939e+02 9.592043e+01 8.500000e+00
      vertex   -1.695946e+02 9.678874e+01 1.500000e+00
    endloop
  endfacet
  facet normal 9.245421e-01 3.810792e-01 -7.570040e-04
    outer loop
      vertex   -1.668362e+02 8.957775e+01 8.500000e+00
      vertex   -1.671222e+02 9.025784e+01 1.500000e+00
      vertex   -1.677004e+02 9.167437e+01 8.500000e+00
    endloop
  endfacet
  facet normal 9.324457e-01 3.613093e-01 -7.866341e-04
    outer loop
      vertex   -1.677004e+02 9.167437e+01 8.500000e+00
      vertex   -1.679939e+02 9.241662e+01 1.500000e+00
      vertex   -1.685197e+02 9.378892e+01 8.500000e+00
    endloop
  endfacet
  facet normal 9.399266e-01 3.413757e-01 -8.113752e-04
    outer loop
      vertex   -1.685197e+02 9.378892e+01 8.500000e+00
      vertex   -1.688181e+02 9.459393e+01 1.500000e+00
      vertex   -1.692939e+02 9.592043e+01 8.500000e+00
    endloop
  endfacet
  facet normal 9.498066e-01 3.128361e-01 9.539814e-04
    outer loop
      vertex   -1.695946e+02 9.678874e+01 1.500000e+00
      vertex   -1.703229e+02 9.900000e+01 1.500000e+00
      vertex   -1.700225e+02 9.806794e+01 8.000000e+00
    endloop
  endfacet
  facet normal 9.510033e-01 3.091805e-01 3.744659e-04
    outer loop
      vertex   -1.700225e+02 9.806794e+01 8.000000e+00
      vertex   -1.703229e+02 9.900000e+01 1.500000e+00
      vertex   -1.701848e+02 9.856794e+01 7.500000e+00
    endloop
  endfacet
  facet normal 9.520900e-01 3.058179e-01 1.073176e-04
    outer loop
      vertex   -1.701848e+02 9.856794e+01 7.500000e+00
      vertex   -1.703229e+02 9.900000e+01 1.500000e+00
      vertex   -1.702311e+02 9.871189e+01 7.500000e+00
    endloop
  endfacet
  facet normal 9.525232e-01 3.044661e-01 3.577256e-05
    outer loop
      vertex   -1.702311e+02 9.871189e+01 7.500000e+00
      vertex   -1.703229e+02 9.900000e+01 1.500000e+00
      vertex   -1.702771e+02 9.885591e+01 7.500000e+00
    endloop
  endfacet
  facet normal 9.529544e-01 3.031136e-01 -0.000000e+00
    outer loop
      vertex   -1.702771e+02 9.885591e+01 7.500000e+00
      vertex   -1.703229e+02 9.900000e+01 1.500000e+00
      vertex   -1.703229e+02 9.900000e+01 7.500000e+00
    endloop
  endfacet
  facet normal 0.000000e+00 -0.000000e+00 1.000000e+00
    outer loop
      vertex   -1.652384e+02 8.600000e+01 1.500000e+00
      vertex   -1.641328e+02 8.600000e+01 1.500000e+00
      vertex   -1.662036e+02 8.811862e+01 1.500000e+00
    endloop
  endfacet
  facet normal -0.000000e+00 -0.000000e+00 1.000000e+00
    outer loop
      vertex   -1.662036e+02 8.811862e+01 1.500000e+00
      vertex   -1.641328e+02 8.600000e+01 1.500000e+00
      vertex   -1.651086e+02 8.811756e+01 1.500000e+00
    endloop
  endfacet
  facet normal -0.000000e+00 -0.000000e+00 1.000000e+00
    outer loop
      vertex   -1.671222e+02 9.025784e+01 1.500000e+00
      vertex   -1.651086e+02 8.811756e+01 1.500000e+00
      vertex   -1.660373e+02 9.025617e+01 1.500000e+00
    endloop
  endfacet
  facet normal -0.000000e+00 -0.000000e+00 1.000000e+00
    outer loop
      vertex   -1.679939e+02 9.241662e+01 1.500000e+00
      vertex   -1.660373e+02 9.025617e+01 1.500000e+00
      vertex   -1.669186e+02 9.241477e+01 1.500000e+00
    endloop
  endfacet
  facet normal -0.000000e+00 -0.000000e+00 1.000000e+00
    outer loop
      vertex   -1.688181e+02 9.459393e+01 1.500000e+00
      vertex   -1.669186e+02 9.241477e+01 1.500000e+00
      vertex   -1.677519e+02 9.459232e+01 1.500000e+00
    endloop
  endfacet
  facet normal -0.000000e+00 -0.000000e+00 1.000000e+00
    outer loop
      vertex   -1.695946e+02 9.678874e+01 1.500000e+00
      vertex   -1.677519e+02 9.459232e+01 1.500000e+00
      vertex   -1.685370e+02 9.678776e+01 1.500000e+00
    endloop
  endfacet
  facet normal -0.000000e+00 -0.000000e+00 1.000000e+00
    outer loop
      vertex   -1.703229e+02 9.900000e+01 1.500000e+00
      vertex   -1.685370e+02 9.678776e+01 1.500000e+00
      vertex   -1.692733e+02 9.900000e+01 1.500000e+00
    endloop
  endfacet
  facet normal 0.000000e+00 0.000000e+00 1.000000e+00
    outer loop
      vertex   -1.703229e+02 9.900000e+01 1.500000e+00
      vertex   -1.695946e+02 9.678874e+01 1.500000e+00
      vertex   -1.685370e+02 9.678776e+01 1.500000e+00
    endloop
  endfacet
  facet normal -0.000000e+00 -0.000000e+00 1.000000e+00
    outer loop
      vertex   -1.662036e+02 8.811862e+01 1.500000e+00
      vertex   -1.651086e+02 8.811756e+01 1.500000e+00
      vertex   -1.671222e+02 9.025784e+01 1.500000e+00
    endloop
  endfacet
  facet normal -0.000000e+00 -0.000000e+00 1.000000e+00
    outer loop
      vertex   -1.671222e+02 9.025784e+01 1.500000e+00
      vertex   -1.660373e+02 9.025617e+01 1.500000e+00
      vertex   -1.679939e+02 9.241662e+01 1.500000e+00
    endloop
  endfacet
  facet normal -0.000000e+00 -0.000000e+00 1.000000e+00
    outer loop
      vertex   -1.679939e+02 9.241662e+01 1.500000e+00
      vertex   -1.669186e+02 9.241477e+01 1.500000e+00
      vertex   -1.688181e+02 9.459393e+01 1.500000e+00
    endloop
  endfacet
  facet normal -0.000000e+00 -0.000000e+00 1.000000e+00
    outer loop
      vertex   -1.688181e+02 9.459393e+01 1.500000e+00
      vertex   -1.677519e+02 9.459232e+01 1.500000e+00
      vertex   -1.695946e+02 9.678874e+01 1.500000e+00
    endloop
  endfacet
  facet normal -9.088841e-01 4.170489e-01 0.000000e+00
    outer loop
      vertex   -1.643891e+02 1.140461e+02 7.546119e+00
      vertex   -1.643891e+02 1.140461e+02 1.453881e+00
      vertex   -1.644103e+02 1.140000e+02 7.500000e+00
    endloop
  endfacet
  facet normal -9.088841e-01 4.170489e-01 0.000000e+00
    outer loop
      vertex   -1.644103e+02 1.140000e+02 7.500000e+00
      vertex   -1.643891e+02 1.140461e+02 1.453881e+00
      vertex   -1.644103e+02 1.140000e+02 1.500000e+00
    endloop
  endfacet
  facet normal -9.122952e-01 4.095328e-01 -4.875911e-04
    outer loop
      vertex   -1.646374e+02 1.135012e+02 7.500000e+00
      vertex   -1.644103e+02 1.140000e+02 1.500000e+00
      vertex   -1.648618e+02 1.130012e+02 7.500000e+00
    endloop
  endfacet
  facet normal -9.100963e-01 4.143968e-01 0.000000e+00
    outer loop
      vertex   -1.646374e+02 1.135012e+02 7.500000e+00
      vertex   -1.644103e+02 1.140000e+02 7.500000e+00
      vertex   -1.644103e+02 1.140000e+02 1.500000e+00
    endloop
  endfacet
  facet normal -9.136351e-01 4.065337e-01 -1.087691e-03
    outer loop
      vertex   -1.644103e+02 1.140000e+02 1.500000e+00
      vertex   -1.653529e+02 1.118815e+02 1.500000e+00
      vertex   -1.648618e+02 1.130012e+02 7.500000e+00
    endloop
  endfacet
  facet normal -9.144682e-01 4.046572e-01 -6.693426e-04
    outer loop
      vertex   -1.648618e+02 1.130012e+02 7.500000e+00
      vertex   -1.653529e+02 1.118815e+02 1.500000e+00
      vertex   -1.650836e+02 1.125000e+02 7.500000e+00
    endloop
  endfacet
  facet normal -9.168614e-01 3.992056e-01 0.000000e+00
    outer loop
      vertex   -1.650836e+02 1.125000e+02 7.500000e+00
      vertex   -1.653529e+02 1.118815e+02 1.500000e+00
      vertex   -1.650836e+02 1.125000e+02 8.500000e+00
    endloop
  endfacet
  facet normal -9.198589e-01 3.922488e-01 7.299562e-04
    outer loop
      vertex   -1.650836e+02 1.125000e+02 8.500000e+00
      vertex   -1.653529e+02 1.118815e+02 1.500000e+00
      vertex   -1.659584e+02 1.104487e+02 8.500000e+00
    endloop
  endfacet
  facet normal -9.225825e-01 3.857990e-01 -8.258969e-04
    outer loop
      vertex   -1.659584e+02 1.104487e+02 8.500000e+00
      vertex   -1.653529e+02 1.118815e+02 1.500000e+00
      vertex   -1.662475e+02 1.097423e+02 1.500000e+00
    endloop
  endfacet
  facet normal -9.310591e-01 3.648673e-01 -8.692990e-04
    outer loop
      vertex   -1.667884e+02 1.083788e+02 8.500000e+00
      vertex   -1.662475e+02 1.097423e+02 1.500000e+00
      vertex   -1.670935e+02 1.075835e+02 1.500000e+00
    endloop
  endfacet
  facet normal -9.390609e-01 3.437496e-01 -9.017647e-04
    outer loop
      vertex   -1.675732e+02 1.062914e+02 8.500000e+00
      vertex   -1.670935e+02 1.075835e+02 1.500000e+00
      vertex   -1.678906e+02 1.054060e+02 1.500000e+00
    endloop
  endfacet
  facet normal -9.465838e-01 3.224566e-01 -9.232942e-04
    outer loop
      vertex   -1.683125e+02 1.041874e+02 8.500000e+00
      vertex   -1.678906e+02 1.054060e+02 1.500000e+00
      vertex   -1.686382e+02 1.032112e+02 1.500000e+00
    endloop
  endfacet
  facet normal -9.519717e-01 3.061859e-01 0.000000e+00
    outer loop
      vertex   -1.690059e+02 1.020679e+02 8.500000e+00
      vertex   -1.686382e+02 1.032112e+02 1.500000e+00
      vertex   -1.690059e+02 1.020679e+02 8.000000e+00
    endloop
  endfacet
  facet normal -9.504249e-01 3.109530e-01 8.598192e-04
    outer loop
      vertex   -1.690059e+02 1.020679e+02 8.500000e+00
      vertex   -1.683125e+02 1.041874e+02 8.500000e+00
      vertex   -1.686382e+02 1.032112e+02 1.500000e+00
    endloop
  endfacet
  facet normal -9.281608e-01 3.721786e-01 7.788264e-04
    outer loop
      vertex   -1.659584e+02 1.104487e+02 8.500000e+00
      vertex   -1.662475e+02 1.097423e+02 1.500000e+00
      vertex   -1.667884e+02 1.083788e+02 8.500000e+00
    endloop
  endfacet
  facet normal -9.360249e-01 3.519329e-01 8.167603e-04
    outer loop
      vertex   -1.667884e+02 1.083788e+02 8.500000e+00
      vertex   -1.670935e+02 1.075835e+02 1.500000e+00
      vertex   -1.675732e+02 1.062914e+02 8.500000e+00
    endloop
  endfacet
  facet normal -9.434474e-01 3.315211e-01 8.437579e-04
    outer loop
      vertex   -1.675732e+02 1.062914e+02 8.500000e+00
      vertex   -1.678906e+02 1.054060e+02 1.500000e+00
      vertex   -1.683125e+02 1.041874e+02 8.500000e+00
    endloop
  endfacet
  facet normal -9.536239e-01 3.009992e-01 -1.005725e-03
    outer loop
      vertex   -1.686382e+02 1.032112e+02 1.500000e+00
      vertex   -1.693362e+02 1.010000e+02 1.500000e+00
      vertex   -1.690059e+02 1.020679e+02 8.000000e+00
    endloop
  endfacet
  facet normal -9.543401e-01 2.987217e-01 -5.951494e-04
    outer loop
      vertex   -1.690059e+02 1.020679e+02 8.000000e+00
      vertex   -1.693362e+02 1.010000e+02 1.500000e+00
      vertex   -1.691621e+02 1.015679e+02 7.500000e+00
    endloop
  endfacet
  facet normal -9.555520e-01 2.948225e-01 -1.909151e-04
    outer loop
      vertex   -1.691621e+02 1.015679e+02 7.500000e+00
      vertex   -1.693362e+02 1.010000e+02 1.500000e+00
      vertex   -1.692205e+02 1.013787e+02 7.500000e+00
    endloop
  endfacet
  facet normal -9.561188e-01 2.929793e-01 -6.363843e-05
    outer loop
      vertex   -1.692205e+02 1.013787e+02 7.500000e+00
      vertex   -1.693362e+02 1.010000e+02 1.500000e+00
      vertex   -1.692785e+02 1.011894e+02 7.500000e+00
    endloop
  endfacet
  facet normal -9.566820e-01 2.911349e-01 0.000000e+00
    outer loop
      vertex   -1.692785e+02 1.011894e+02 7.500000e+00
      vertex   -1.693362e+02 1.010000e+02 1.500000e+00
      vertex   -1.693362e+02 1.010000e+02 7.500000e+00
    endloop
  endfacet
  facet normal 0.000000e+00 -0.000000e+00 -1.000000e+00
    outer loop
      vertex   -1.655093e+02 1.140000e+02 7.500000e+00
      vertex   -1.644103e+02 1.140000e+02 7.500000e+00
      vertex   -1.657338e+02 1.135012e+02 7.500000e+00
    endloop
  endfacet
  facet normal 0.000000e+00 -0.000000e+00 -1.000000e+00
    outer loop
      vertex   -1.657338e+02 1.135012e+02 7.500000e+00
      vertex   -1.644103e+02 1.140000e+02 7.500000e+00
      vertex   -1.646374e+02 1.135012e+02 7.500000e+00
    endloop
  endfacet
  facet normal 0.000000e+00 -0.000000e+00 -1.000000e+00
    outer loop
      vertex   -1.659556e+02 1.130012e+02 7.500000e+00
      vertex   -1.646374e+02 1.135012e+02 7.500000e+00
      vertex   -1.648618e+02 1.130012e+02 7.500000e+00
    endloop
  endfacet
  facet normal 0.000000e+00 -0.000000e+00 -1.000000e+00
    outer loop
      vertex   -1.661749e+02 1.125000e+02 7.500000e+00
      vertex   -1.648618e+02 1.130012e+02 7.500000e+00
      vertex   -1.650836e+02 1.125000e+02 7.500000e+00
    endloop
  endfacet
  facet normal 0.000000e+00 0.000000e+00 -1.000000e+00
    outer loop
      vertex   -1.661749e+02 1.125000e+02 7.500000e+00
      vertex   -1.659556e+02 1.130012e+02 7.500000e+00
      vertex   -1.648618e+02 1.130012e+02 7.500000e+00
    endloop
  endfacet
  facet normal 0.000000e+00 -0.000000e+00 -1.000000e+00
    outer loop
      vertex   -1.657338e+02 1.135012e+02 7.500000e+00
      vertex   -1.646374e+02 1.135012e+02 7.500000e+00
      vertex   -1.659556e+02 1.130012e+02 7.500000e+00
    endloop
  endfacet
  facet normal -0.000000e+00 -1.000000e+00 0.000000e+00
    outer loop
      vertex   -1.650836e+02 1.125000e+02 7.500000e+00
      vertex   -1.650836e+02 1.125000e+02 8.500000e+00
      vertex   -1.661749e+02 1.125000e+02 7.500000e+00
    endloop
  endfacet
  facet normal 0.000000e+00 -1.000000e+00 0.000000e+00
    outer loop
      vertex   -1.661749e+02 1.125000e+02 7.500000e+00
      vertex   -1.650836e+02 1.125000e+02 8.500000e+00
      vertex   -1.661749e+02 1.125000e+02 8.500000e+00
    endloop
  endfacet
  facet normal -0.000000e+00 -1.000000e+00 0.000000e+00
    outer loop
      vertex   -1.689697e+02 9.806794e+01 8.000000e+00
      vertex   -1.689697e+02 9.806794e+01 8.500000e+00
      vertex   -1.700225e+02 9.806794e+01 8.000000e+00
    endloop
  endfacet
  facet normal 0.000000e+00 -1.000000e+00 0.000000e+00
    outer loop
      vertex   -1.700225e+02 9.806794e+01 8.000000e+00
      vertex   -1.689697e+02 9.806794e+01 8.500000e+00
      vertex   -1.700225e+02 9.806794e+01 8.500000e+00
    endloop
  endfacet
  facet normal -0.000000e+00 1.000000e+00 0.000000e+00
    outer loop
      vertex   -1.700539e+02 1.020679e+02 8.000000e+00
      vertex   -1.700539e+02 1.020679e+02 8.500000e+00
      vertex   -1.690059e+02 1.020679e+02 8.000000e+00
    endloop
  endfacet
  facet normal 0.000000e+00 1.000000e+00 -0.000000e+00
    outer loop
      vertex   -1.690059e+02 1.020679e+02 8.000000e+00
      vertex   -1.700539e+02 1.020679e+02 8.500000e+00
      vertex   -1.690059e+02 1.020679e+02 8.500000e+00
    endloop
  endfacet
  facet normal -0.000000e+00 1.000000e+00 0.000000e+00
    outer loop
      vertex   -1.659275e+02 8.750000e+01 7.500000e+00
      vertex   -1.659275e+02 8.750000e+01 8.500000e+00
      vertex   -1.648299e+02 8.750000e+01 7.500000e+00
    endloop
  endfacet
  facet normal 0.000000e+00 1.000000e+00 -0.000000e+00
    outer loop
      vertex   -1.648299e+02 8.750000e+01 7.500000e+00
      vertex   -1.659275e+02 8.750000e+01 8.500000e+00
      vertex   -1.648299e+02 8.750000e+01 8.500000e+00
    endloop
  endfacet
  facet normal 9.019427e-01 4.318557e-01 0.000000e+00
    outer loop
      vertex   -1.616700e+02 8.550000e+01 5.000000e-01
      vertex   -1.626408e+02 8.752744e+01 5.000000e-01
      vertex   -1.616700e+02 8.550000e+01 8.500000e+00
    endloop
  endfacet
  facet normal 9.019427e-01 4.318557e-01 -0.000000e+00
    outer loop
      vertex   -1.616700e+02 8.550000e+01 8.500000e+00
      vertex   -1.626408e+02 8.752744e+01 5.000000e-01
      vertex   -1.626408e+02 8.752744e+01 8.500000e+00
    endloop
  endfacet
  facet normal 9.111078e-01 4.121682e-01 0.000000e+00
    outer loop
      vertex   -1.626408e+02 8.752744e+01 8.500000e+00
      vertex   -1.626408e+02 8.752744e+01 5.000000e-01
      vertex   -1.635673e+02 8.957549e+01 5.000000e-01
    endloop
  endfacet
  facet normal 9.198431e-01 3.922864e-01 -6.968407e-16
    outer loop
      vertex   -1.635673e+02 8.957549e+01 8.500000e+00
      vertex   -1.635673e+02 8.957549e+01 5.000000e-01
      vertex   -1.644491e+02 9.164317e+01 8.500000e+00
    endloop
  endfacet
  facet normal 9.111078e-01 4.121682e-01 -7.285046e-16
    outer loop
      vertex   -1.635673e+02 8.957549e+01 8.500000e+00
      vertex   -1.626408e+02 8.752744e+01 8.500000e+00
      vertex   -1.635673e+02 8.957549e+01 5.000000e-01
    endloop
  endfacet
  facet normal 9.198431e-01 3.922864e-01 -6.968407e-16
    outer loop
      vertex   -1.635673e+02 8.957549e+01 5.000000e-01
      vertex   -1.644491e+02 9.164317e+01 5.000000e-01
      vertex   -1.644491e+02 9.164317e+01 8.500000e+00
    endloop
  endfacet
  facet normal 9.281447e-01 3.722196e-01 -6.611948e-16
    outer loop
      vertex   -1.644491e+02 9.164317e+01 8.500000e+00
      vertex   -1.644491e+02 9.164317e+01 5.000000e-01
      vertex   -1.652858e+02 9.372951e+01 5.000000e-01
    endloop
  endfacet
  facet normal 9.360086e-01 3.519772e-01 2.700133e-15
    outer loop
      vertex   -1.652858e+02 9.372951e+01 8.500000e+00
      vertex   -1.652858e+02 9.372951e+01 5.000000e-01
      vertex   -1.660770e+02 9.583353e+01 5.000000e-01
    endloop
  endfacet
  facet normal 9.434310e-01 3.315689e-01 -5.889846e-16
    outer loop
      vertex   -1.660770e+02 9.583353e+01 8.500000e+00
      vertex   -1.660770e+02 9.583353e+01 5.000000e-01
      vertex   -1.668223e+02 9.795424e+01 5.000000e-01
    endloop
  endfacet
  facet normal 9.504086e-01 3.110041e-01 2.271621e-15
    outer loop
      vertex   -1.668223e+02 9.795424e+01 8.500000e+00
      vertex   -1.668223e+02 9.795424e+01 5.000000e-01
      vertex   -1.675214e+02 1.000906e+02 5.000000e-01
    endloop
  endfacet
  facet normal 9.504086e-01 3.110041e-01 -1.111278e-15
    outer loop
      vertex   -1.675214e+02 1.000906e+02 8.500000e+00
      vertex   -1.668223e+02 9.795424e+01 8.500000e+00
      vertex   -1.675214e+02 1.000906e+02 5.000000e-01
    endloop
  endfacet
  facet normal 9.281447e-01 3.722196e-01 2.636238e-15
    outer loop
      vertex   -1.644491e+02 9.164317e+01 8.500000e+00
      vertex   -1.652858e+02 9.372951e+01 5.000000e-01
      vertex   -1.652858e+02 9.372951e+01 8.500000e+00
    endloop
  endfacet
  facet normal 9.360086e-01 3.519772e-01 -6.252371e-16
    outer loop
      vertex   -1.652858e+02 9.372951e+01 8.500000e+00
      vertex   -1.660770e+02 9.583353e+01 5.000000e-01
      vertex   -1.660770e+02 9.583353e+01 8.500000e+00
    endloop
  endfacet
  facet normal 9.434310e-01 3.315689e-01 2.173771e-15
    outer loop
      vertex   -1.660770e+02 9.583353e+01 8.500000e+00
      vertex   -1.668223e+02 9.795424e+01 5.000000e-01
      vertex   -1.668223e+02 9.795424e+01 8.500000e+00
    endloop
  endfacet
  facet normal 0.000000e+00 -0.000000e+00 1.000000e+00
    outer loop
      vertex   -1.682331e+02 9.591968e+01 8.500000e+00
      vertex   -1.668223e+02 9.795424e+01 8.500000e+00
      vertex   -1.689697e+02 9.806794e+01 8.500000e+00
    endloop
  endfacet
  facet normal -0.000000e+00 -0.000000e+00 1.000000e+00
    outer loop
      vertex   -1.682331e+02 9.591968e+01 8.500000e+00
      vertex   -1.660770e+02 9.583353e+01 8.500000e+00
      vertex   -1.668223e+02 9.795424e+01 8.500000e+00
    endloop
  endfacet
  facet normal -0.000000e+00 0.000000e+00 1.000000e+00
    outer loop
      vertex   -1.682331e+02 9.591968e+01 8.500000e+00
      vertex   -1.674505e+02 9.378778e+01 8.500000e+00
      vertex   -1.660770e+02 9.583353e+01 8.500000e+00
    endloop
  endfacet
  facet normal 0.000000e+00 0.000000e+00 1.000000e+00
    outer loop
      vertex   -1.660770e+02 9.583353e+01 8.500000e+00
      vertex   -1.674505e+02 9.378778e+01 8.500000e+00
      vertex   -1.652858e+02 9.372951e+01 8.500000e+00
    endloop
  endfacet
  facet normal 0.000000e+00 0.000000e+00 1.000000e+00
    outer loop
      vertex   -1.652858e+02 9.372951e+01 8.500000e+00
      vertex   -1.674505e+02 9.378778e+01 8.500000e+00
      vertex   -1.666221e+02 9.167321e+01 8.500000e+00
    endloop
  endfacet
  facet normal 0.000000e+00 0.000000e+00 1.000000e+00
    outer loop
      vertex   -1.644491e+02 9.164317e+01 8.500000e+00
      vertex   -1.666221e+02 9.167321e+01 8.500000e+00
      vertex   -1.657485e+02 8.957696e+01 8.500000e+00
    endloop
  endfacet
  facet normal 0.000000e+00 0.000000e+00 1.000000e+00
    outer loop
      vertex   -1.635673e+02 8.957549e+01 8.500000e+00
      vertex   -1.657485e+02 8.957696e+01 8.500000e+00
      vertex   -1.648299e+02 8.750000e+01 8.500000e+00
    endloop
  endfacet
  facet normal 0.000000e+00 0.000000e+00 1.000000e+00
    outer loop
      vertex   -1.626408e+02 8.752744e+01 8.500000e+00
      vertex   -1.648299e+02 8.750000e+01 8.500000e+00
      vertex   -1.616700e+02 8.550000e+01 8.500000e+00
    endloop
  endfacet
  facet normal 0.000000e+00 0.000000e+00 1.000000e+00
    outer loop
      vertex   -1.626408e+02 8.752744e+01 8.500000e+00
      vertex   -1.635673e+02 8.957549e+01 8.500000e+00
      vertex   -1.648299e+02 8.750000e+01 8.500000e+00
    endloop
  endfacet
  facet normal 0.000000e+00 0.000000e+00 1.000000e+00
    outer loop
      vertex   -1.652858e+02 9.372951e+01 8.500000e+00
      vertex   -1.666221e+02 9.167321e+01 8.500000e+00
      vertex   -1.644491e+02 9.164317e+01 8.500000e+00
    endloop
  endfacet
  facet normal 0.000000e+00 0.000000e+00 1.000000e+00
    outer loop
      vertex   -1.644491e+02 9.164317e+01 8.500000e+00
      vertex   -1.657485e+02 8.957696e+01 8.500000e+00
      vertex   -1.635673e+02 8.957549e+01 8.500000e+00
    endloop
  endfacet
  facet normal 0.000000e+00 0.000000e+00 1.000000e+00
    outer loop
      vertex   -1.616700e+02 8.550000e+01 8.500000e+00
      vertex   -1.648299e+02 8.750000e+01 8.500000e+00
      vertex   -1.672121e+02 8.550000e+01 8.500000e+00
    endloop
  endfacet
  facet normal 0.000000e+00 -0.000000e+00 1.000000e+00
    outer loop
      vertex   -1.672121e+02 8.550000e+01 8.500000e+00
      vertex   -1.648299e+02 8.750000e+01 8.500000e+00
      vertex   -1.659275e+02 8.750000e+01 8.500000e+00
    endloop
  endfacet
  facet normal -0.000000e+00 -0.000000e+00 1.000000e+00
    outer loop
      vertex   -1.681291e+02 8.752815e+01 8.500000e+00
      vertex   -1.659275e+02 8.750000e+01 8.500000e+00
      vertex   -1.668362e+02 8.957775e+01 8.500000e+00
    endloop
  endfacet
  facet normal 0.000000e+00 -0.000000e+00 1.000000e+00
    outer loop
      vertex   -1.690042e+02 8.957468e+01 8.500000e+00
      vertex   -1.668362e+02 8.957775e+01 8.500000e+00
      vertex   -1.677004e+02 9.167437e+01 8.500000e+00
    endloop
  endfacet
  facet normal 0.000000e+00 -0.000000e+00 1.000000e+00
    outer loop
      vertex   -1.698371e+02 9.163873e+01 8.500000e+00
      vertex   -1.677004e+02 9.167437e+01 8.500000e+00
      vertex   -1.685197e+02 9.378892e+01 8.500000e+00
    endloop
  endfacet
  facet normal 0.000000e+00 -0.000000e+00 1.000000e+00
    outer loop
      vertex   -1.706276e+02 9.371943e+01 8.500000e+00
      vertex   -1.685197e+02 9.378892e+01 8.500000e+00
      vertex   -1.692939e+02 9.592043e+01 8.500000e+00
    endloop
  endfacet
  facet normal 0.000000e+00 -0.000000e+00 1.000000e+00
    outer loop
      vertex   -1.713752e+02 9.581590e+01 8.500000e+00
      vertex   -1.692939e+02 9.592043e+01 8.500000e+00
      vertex   -1.700225e+02 9.806794e+01 8.500000e+00
    endloop
  endfacet
  facet normal 0.000000e+00 -0.000000e+00 1.000000e+00
    outer loop
      vertex   -1.720796e+02 9.792727e+01 8.500000e+00
      vertex   -1.700225e+02 9.806794e+01 8.500000e+00
      vertex   -1.727406e+02 1.000526e+02 8.500000e+00
    endloop
  endfacet
  facet normal -0.000000e+00 0.000000e+00 1.000000e+00
    outer loop
      vertex   -1.720796e+02 9.792727e+01 8.500000e+00
      vertex   -1.713752e+02 9.581590e+01 8.500000e+00
      vertex   -1.700225e+02 9.806794e+01 8.500000e+00
    endloop
  endfacet
  facet normal 0.000000e+00 -0.000000e+00 1.000000e+00
    outer loop
      vertex   -1.672121e+02 8.550000e+01 8.500000e+00
      vertex   -1.659275e+02 8.750000e+01 8.500000e+00
      vertex   -1.681291e+02 8.752815e+01 8.500000e+00
    endloop
  endfacet
  facet normal 0.000000e+00 -0.000000e+00 1.000000e+00
    outer loop
      vertex   -1.681291e+02 8.752815e+01 8.500000e+00
      vertex   -1.668362e+02 8.957775e+01 8.500000e+00
      vertex   -1.690042e+02 8.957468e+01 8.500000e+00
    endloop
  endfacet
  facet normal 0.000000e+00 -0.000000e+00 1.000000e+00
    outer loop
      vertex   -1.690042e+02 8.957468e+01 8.500000e+00
      vertex   -1.677004e+02 9.167437e+01 8.500000e+00
      vertex   -1.698371e+02 9.163873e+01 8.500000e+00
    endloop
  endfacet
  facet normal 0.000000e+00 -0.000000e+00 1.000000e+00
    outer loop
      vertex   -1.698371e+02 9.163873e+01 8.500000e+00
      vertex   -1.685197e+02 9.378892e+01 8.500000e+00
      vertex   -1.706276e+02 9.371943e+01 8.500000e+00
    endloop
  endfacet
  facet normal 0.000000e+00 -0.000000e+00 1.000000e+00
    outer loop
      vertex   -1.706276e+02 9.371943e+01 8.500000e+00
      vertex   -1.692939e+02 9.592043e+01 8.500000e+00
      vertex   -1.713752e+02 9.581590e+01 8.500000e+00
    endloop
  endfacet
  facet normal -0.000000e+00 -0.000000e+00 1.000000e+00
    outer loop
      vertex   -1.727406e+02 1.000526e+02 8.500000e+00
      vertex   -1.700225e+02 9.806794e+01 8.500000e+00
      vertex   -1.700539e+02 1.020679e+02 8.500000e+00
    endloop
  endfacet
  facet normal -0.000000e+00 -0.000000e+00 1.000000e+00
    outer loop
      vertex   -1.721185e+02 1.021613e+02 8.500000e+00
      vertex   -1.700539e+02 1.020679e+02 8.500000e+00
      vertex   -1.714526e+02 1.042565e+02 8.500000e+00
    endloop
  endfacet
  facet normal -0.000000e+00 0.000000e+00 1.000000e+00
    outer loop
      vertex   -1.721185e+02 1.021613e+02 8.500000e+00
      vertex   -1.727406e+02 1.000526e+02 8.500000e+00
      vertex   -1.700539e+02 1.020679e+02 8.500000e+00
    endloop
  endfacet
  facet normal -0.000000e+00 -0.000000e+00 1.000000e+00
    outer loop
      vertex   -1.700539e+02 1.020679e+02 8.500000e+00
      vertex   -1.689697e+02 9.806794e+01 8.500000e+00
      vertex   -1.690059e+02 1.020679e+02 8.500000e+00
    endloop
  endfacet
  facet normal -0.000000e+00 0.000000e+00 1.000000e+00
    outer loop
      vertex   -1.700539e+02 1.020679e+02 8.500000e+00
      vertex   -1.700225e+02 9.806794e+01 8.500000e+00
      vertex   -1.689697e+02 9.806794e+01 8.500000e+00
    endloop
  endfacet
  facet normal 0.000000e+00 -0.000000e+00 1.000000e+00
    outer loop
      vertex   -1.700539e+02 1.020679e+02 8.500000e+00
      vertex   -1.693681e+02 1.041867e+02 8.500000e+00
      vertex   -1.714526e+02 1.042565e+02 8.500000e+00
    endloop
  endfacet
  facet normal -0.000000e+00 -0.000000e+00 1.000000e+00
    outer loop
      vertex   -1.714526e+02 1.042565e+02 8.500000e+00
      vertex   -1.693681e+02 1.041867e+02 8.500000e+00
      vertex   -1.707432e+02 1.063374e+02 8.500000e+00
    endloop
  endfacet
  facet normal -0.000000e+00 0.000000e+00 1.000000e+00
    outer loop
      vertex   -1.707432e+02 1.063374e+02 8.500000e+00
      vertex   -1.693681e+02 1.041867e+02 8.500000e+00
      vertex   -1.686370e+02 1.062903e+02 8.500000e+00
    endloop
  endfacet
  facet normal -0.000000e+00 0.000000e+00 1.000000e+00
    outer loop
      vertex   -1.699907e+02 1.084031e+02 8.500000e+00
      vertex   -1.686370e+02 1.062903e+02 8.500000e+00
      vertex   -1.678608e+02 1.083777e+02 8.500000e+00
    endloop
  endfacet
  facet normal -0.000000e+00 0.000000e+00 1.000000e+00
    outer loop
      vertex   -1.691954e+02 1.104527e+02 8.500000e+00
      vertex   -1.678608e+02 1.083777e+02 8.500000e+00
      vertex   -1.670400e+02 1.104479e+02 8.500000e+00
    endloop
  endfacet
  facet normal -0.000000e+00 0.000000e+00 1.000000e+00
    outer loop
      vertex   -1.683577e+02 1.124853e+02 8.500000e+00
      vertex   -1.670400e+02 1.104479e+02 8.500000e+00
      vertex   -1.661749e+02 1.125000e+02 8.500000e+00
    endloop
  endfacet
  facet normal -0.000000e+00 0.000000e+00 1.000000e+00
    outer loop
      vertex   -1.674778e+02 1.145000e+02 8.500000e+00
      vertex   -1.661749e+02 1.125000e+02 8.500000e+00
      vertex   -1.650836e+02 1.125000e+02 8.500000e+00
    endloop
  endfacet
  facet normal 0.000000e+00 0.000000e+00 1.000000e+00
    outer loop
      vertex   -1.619689e+02 1.145000e+02 8.500000e+00
      vertex   -1.650836e+02 1.125000e+02 8.500000e+00
      vertex   -1.628966e+02 1.124962e+02 8.500000e+00
    endloop
  endfacet
  facet normal 0.000000e+00 0.000000e+00 1.000000e+00
    outer loop
      vertex   -1.619689e+02 1.145000e+02 8.500000e+00
      vertex   -1.674778e+02 1.145000e+02 8.500000e+00
      vertex   -1.650836e+02 1.125000e+02 8.500000e+00
    endloop
  endfacet
  facet normal -0.000000e+00 -0.000000e+00 1.000000e+00
    outer loop
      vertex   -1.707432e+02 1.063374e+02 8.500000e+00
      vertex   -1.686370e+02 1.062903e+02 8.500000e+00
      vertex   -1.699907e+02 1.084031e+02 8.500000e+00
    endloop
  endfacet
  facet normal -0.000000e+00 -0.000000e+00 1.000000e+00
    outer loop
      vertex   -1.699907e+02 1.084031e+02 8.500000e+00
      vertex   -1.678608e+02 1.083777e+02 8.500000e+00
      vertex   -1.691954e+02 1.104527e+02 8.500000e+00
    endloop
  endfacet
  facet normal -0.000000e+00 -0.000000e+00 1.000000e+00
    outer loop
      vertex   -1.691954e+02 1.104527e+02 8.500000e+00
      vertex   -1.670400e+02 1.104479e+02 8.500000e+00
      vertex   -1.683577e+02 1.124853e+02 8.500000e+00
    endloop
  endfacet
  facet normal 0.000000e+00 -0.000000e+00 1.000000e+00
    outer loop
      vertex   -1.683577e+02 1.124853e+02 8.500000e+00
      vertex   -1.661749e+02 1.125000e+02 8.500000e+00
      vertex   -1.674778e+02 1.145000e+02 8.500000e+00
    endloop
  endfacet
  facet normal 0.000000e+00 0.000000e+00 1.000000e+00
    outer loop
      vertex   -1.628966e+02 1.124962e+02 8.500000e+00
      vertex   -1.650836e+02 1.125000e+02 8.500000e+00
      vertex   -1.637802e+02 1.104725e+02 8.500000e+00
    endloop
  endfacet
  facet normal 0.000000e+00 0.000000e+00 1.000000e+00
    outer loop
      vertex   -1.637802e+02 1.104725e+02 8.500000e+00
      vertex   -1.650836e+02 1.125000e+02 8.500000e+00
      vertex   -1.659584e+02 1.104487e+02 8.500000e+00
    endloop
  endfacet
  facet normal 0.000000e+00 0.000000e+00 1.000000e+00
    outer loop
      vertex   -1.646192e+02 1.084300e+02 8.500000e+00
      vertex   -1.659584e+02 1.104487e+02 8.500000e+00
      vertex   -1.667884e+02 1.083788e+02 8.500000e+00
    endloop
  endfacet
  facet normal 0.000000e+00 0.000000e+00 1.000000e+00
    outer loop
      vertex   -1.654132e+02 1.063695e+02 8.500000e+00
      vertex   -1.667884e+02 1.083788e+02 8.500000e+00
      vertex   -1.675732e+02 1.062914e+02 8.500000e+00
    endloop
  endfacet
  facet normal 0.000000e+00 0.000000e+00 1.000000e+00
    outer loop
      vertex   -1.661618e+02 1.042921e+02 8.500000e+00
      vertex   -1.675732e+02 1.062914e+02 8.500000e+00
      vertex   -1.683125e+02 1.041874e+02 8.500000e+00
    endloop
  endfacet
  facet normal 0.000000e+00 0.000000e+00 1.000000e+00
    outer loop
      vertex   -1.668646e+02 1.021988e+02 8.500000e+00
      vertex   -1.683125e+02 1.041874e+02 8.500000e+00
      vertex   -1.690059e+02 1.020679e+02 8.500000e+00
    endloop
  endfacet
  facet normal 0.000000e+00 0.000000e+00 1.000000e+00
    outer loop
      vertex   -1.675214e+02 1.000906e+02 8.500000e+00
      vertex   -1.690059e+02 1.020679e+02 8.500000e+00
      vertex   -1.689697e+02 9.806794e+01 8.500000e+00
    endloop
  endfacet
  facet normal 0.000000e+00 0.000000e+00 1.000000e+00
    outer loop
      vertex   -1.668223e+02 9.795424e+01 8.500000e+00
      vertex   -1.675214e+02 1.000906e+02 8.500000e+00
      vertex   -1.689697e+02 9.806794e+01 8.500000e+00
    endloop
  endfacet
  facet normal 0.000000e+00 0.000000e+00 1.000000e+00
    outer loop
      vertex   -1.637802e+02 1.104725e+02 8.500000e+00
      vertex   -1.659584e+02 1.104487e+02 8.500000e+00
      vertex   -1.646192e+02 1.084300e+02 8.500000e+00
    endloop
  endfacet
  facet normal 0.000000e+00 0.000000e+00 1.000000e+00
    outer loop
      vertex   -1.646192e+02 1.084300e+02 8.500000e+00
      vertex   -1.667884e+02 1.083788e+02 8.500000e+00
      vertex   -1.654132e+02 1.063695e+02 8.500000e+00
    endloop
  endfacet
  facet normal 0.000000e+00 0.000000e+00 1.000000e+00
    outer loop
      vertex   -1.654132e+02 1.063695e+02 8.500000e+00
      vertex   -1.675732e+02 1.062914e+02 8.500000e+00
      vertex   -1.661618e+02 1.042921e+02 8.500000e+00
    endloop
  endfacet
  facet normal 0.000000e+00 0.000000e+00 1.000000e+00
    outer loop
      vertex   -1.661618e+02 1.042921e+02 8.500000e+00
      vertex   -1.683125e+02 1.041874e+02 8.500000e+00
      vertex   -1.668646e+02 1.021988e+02 8.500000e+00
    endloop
  endfacet
  facet normal 0.000000e+00 -0.000000e+00 1.000000e+00
    outer loop
      vertex   -1.675214e+02 1.000906e+02 8.500000e+00
      vertex   -1.668646e+02 1.021988e+02 8.500000e+00
      vertex   -1.690059e+02 1.020679e+02 8.500000e+00
    endloop
  endfacet
  facet normal 9.074571e-01 -4.201448e-01 0.000000e+00
    outer loop
      vertex   -1.619689e+02 1.145000e+02 8.500000e+00
      vertex   -1.628966e+02 1.124962e+02 8.500000e+00
      vertex   -1.619689e+02 1.145000e+02 5.000000e-01
    endloop
  endfacet
  facet normal 9.074571e-01 -4.201448e-01 0.000000e+00
    outer loop
      vertex   -1.619689e+02 1.145000e+02 5.000000e-01
      vertex   -1.628966e+02 1.124962e+02 8.500000e+00
      vertex   -1.628966e+02 1.124962e+02 5.000000e-01
    endloop
  endfacet
  facet normal 9.164534e-01 -4.001415e-01 0.000000e+00
    outer loop
      vertex   -1.628966e+02 1.124962e+02 5.000000e-01
      vertex   -1.628966e+02 1.124962e+02 8.500000e+00
      vertex   -1.637802e+02 1.104725e+02 8.500000e+00
    endloop
  endfacet
  facet normal 9.250088e-01 -3.799457e-01 4.636130e-15
    outer loop
      vertex   -1.637802e+02 1.104725e+02 5.000000e-01
      vertex   -1.637802e+02 1.104725e+02 8.500000e+00
      vertex   -1.646192e+02 1.084300e+02 8.500000e+00
    endloop
  endfacet
  facet normal 9.331192e-01 -3.595671e-01 0.000000e+00
    outer loop
      vertex   -1.646192e+02 1.084300e+02 5.000000e-01
      vertex   -1.646192e+02 1.084300e+02 8.500000e+00
      vertex   -1.654132e+02 1.063695e+02 8.500000e+00
    endloop
  endfacet
  facet normal 9.407808e-01 -3.390155e-01 -2.137900e-15
    outer loop
      vertex   -1.654132e+02 1.063695e+02 5.000000e-01
      vertex   -1.654132e+02 1.063695e+02 8.500000e+00
      vertex   -1.661618e+02 1.042921e+02 8.500000e+00
    endloop
  endfacet
  facet normal 9.479897e-01 -3.183009e-01 -2.802520e-15
    outer loop
      vertex   -1.661618e+02 1.042921e+02 5.000000e-01
      vertex   -1.661618e+02 1.042921e+02 8.500000e+00
      vertex   -1.668646e+02 1.021988e+02 8.500000e+00
    endloop
  endfacet
  facet normal 9.547427e-01 -2.974331e-01 -1.806885e-15
    outer loop
      vertex   -1.668646e+02 1.021988e+02 5.000000e-01
      vertex   -1.668646e+02 1.021988e+02 8.500000e+00
      vertex   -1.675214e+02 1.000906e+02 8.500000e+00
    endloop
  endfacet
  facet normal 9.547427e-01 -2.974331e-01 1.068418e-15
    outer loop
      vertex   -1.675214e+02 1.000906e+02 5.000000e-01
      vertex   -1.668646e+02 1.021988e+02 5.000000e-01
      vertex   -1.675214e+02 1.000906e+02 8.500000e+00
    endloop
  endfacet
  facet normal 9.164534e-01 -4.001415e-01 4.677485e-15
    outer loop
      vertex   -1.628966e+02 1.124962e+02 5.000000e-01
      vertex   -1.637802e+02 1.104725e+02 8.500000e+00
      vertex   -1.637802e+02 1.104725e+02 5.000000e-01
    endloop
  endfacet
  facet normal 9.250088e-01 -3.799457e-01 0.000000e+00
    outer loop
      vertex   -1.637802e+02 1.104725e+02 5.000000e-01
      vertex   -1.646192e+02 1.084300e+02 8.500000e+00
      vertex   -1.646192e+02 1.084300e+02 5.000000e-01
    endloop
  endfacet
  facet normal 9.331192e-01 -3.595671e-01 -2.037667e-15
    outer loop
      vertex   -1.646192e+02 1.084300e+02 5.000000e-01
      vertex   -1.654132e+02 1.063695e+02 8.500000e+00
      vertex   -1.654132e+02 1.063695e+02 5.000000e-01
    endloop
  endfacet
  facet normal 9.407808e-01 -3.390155e-01 -2.740112e-15
    outer loop
      vertex   -1.654132e+02 1.063695e+02 5.000000e-01
      vertex   -1.661618e+02 1.042921e+02 8.500000e+00
      vertex   -1.661618e+02 1.042921e+02 5.000000e-01
    endloop
  endfacet
  facet normal 9.479897e-01 -3.183009e-01 -1.671688e-15
    outer loop
      vertex   -1.661618e+02 1.042921e+02 5.000000e-01
      vertex   -1.668646e+02 1.021988e+02 8.500000e+00
      vertex   -1.668646e+02 1.021988e+02 5.000000e-01
    endloop
  endfacet
  facet normal -9.164227e-01 4.002117e-01 0.000000e+00
    outer loop
      vertex   -1.674778e+02 1.145000e+02 5.000000e-01
      vertex   -1.683577e+02 1.124853e+02 5.000000e-01
      vertex   -1.674778e+02 1.145000e+02 8.500000e+00
    endloop
  endfacet
  facet normal -9.164227e-01 4.002117e-01 0.000000e+00
    outer loop
      vertex   -1.674778e+02 1.145000e+02 8.500000e+00
      vertex   -1.683577e+02 1.124853e+02 5.000000e-01
      vertex   -1.683577e+02 1.124853e+02 8.500000e+00
    endloop
  endfacet
  facet normal -9.245500e-01 3.810608e-01 0.000000e+00
    outer loop
      vertex   -1.683577e+02 1.124853e+02 8.500000e+00
      vertex   -1.683577e+02 1.124853e+02 5.000000e-01
      vertex   -1.691954e+02 1.104527e+02 5.000000e-01
    endloop
  endfacet
  facet normal -9.322771e-01 3.617451e-01 0.000000e+00
    outer loop
      vertex   -1.691954e+02 1.104527e+02 8.500000e+00
      vertex   -1.691954e+02 1.104527e+02 5.000000e-01
      vertex   -1.699907e+02 1.084031e+02 8.500000e+00
    endloop
  endfacet
  facet normal -9.245500e-01 3.810608e-01 0.000000e+00
    outer loop
      vertex   -1.691954e+02 1.104527e+02 8.500000e+00
      vertex   -1.683577e+02 1.124853e+02 8.500000e+00
      vertex   -1.691954e+02 1.104527e+02 5.000000e-01
    endloop
  endfacet
  facet normal -9.322771e-01 3.617451e-01 0.000000e+00
    outer loop
      vertex   -1.691954e+02 1.104527e+02 5.000000e-01
      vertex   -1.699907e+02 1.084031e+02 5.000000e-01
      vertex   -1.699907e+02 1.084031e+02 8.500000e+00
    endloop
  endfacet
  facet normal -9.396006e-01 3.422727e-01 0.000000e+00
    outer loop
      vertex   -1.699907e+02 1.084031e+02 8.500000e+00
      vertex   -1.699907e+02 1.084031e+02 5.000000e-01
      vertex   -1.707432e+02 1.063374e+02 5.000000e-01
    endloop
  endfacet
  facet normal -9.465176e-01 3.226523e-01 0.000000e+00
    outer loop
      vertex   -1.707432e+02 1.063374e+02 8.500000e+00
      vertex   -1.707432e+02 1.063374e+02 5.000000e-01
      vertex   -1.714526e+02 1.042565e+02 5.000000e-01
    endloop
  endfacet
  facet normal -9.530248e-01 3.028922e-01 0.000000e+00
    outer loop
      vertex   -1.714526e+02 1.042565e+02 8.500000e+00
      vertex   -1.714526e+02 1.042565e+02 5.000000e-01
      vertex   -1.721185e+02 1.021613e+02 5.000000e-01
    endloop
  endfacet
  facet normal -9.591196e-01 2.830010e-01 0.000000e+00
    outer loop
      vertex   -1.721185e+02 1.021613e+02 8.500000e+00
      vertex   -1.721185e+02 1.021613e+02 5.000000e-01
      vertex   -1.727406e+02 1.000526e+02 5.000000e-01
    endloop
  endfacet
  facet normal -9.591196e-01 2.830010e-01 0.000000e+00
    outer loop
      vertex   -1.727406e+02 1.000526e+02 8.500000e+00
      vertex   -1.721185e+02 1.021613e+02 8.500000e+00
      vertex   -1.727406e+02 1.000526e+02 5.000000e-01
    endloop
  endfacet
  facet normal -9.396006e-01 3.422727e-01 0.000000e+00
    outer loop
      vertex   -1.699907e+02 1.084031e+02 8.500000e+00
      vertex   -1.707432e+02 1.063374e+02 5.000000e-01
      vertex   -1.707432e+02 1.063374e+02 8.500000e+00
    endloop
  endfacet
  facet normal -9.465176e-01 3.226523e-01 0.000000e+00
    outer loop
      vertex   -1.707432e+02 1.063374e+02 8.500000e+00
      vertex   -1.714526e+02 1.042565e+02 5.000000e-01
      vertex   -1.714526e+02 1.042565e+02 8.500000e+00
    endloop
  endfacet
  facet normal -9.530248e-01 3.028922e-01 0.000000e+00
    outer loop
      vertex   -1.714526e+02 1.042565e+02 8.500000e+00
      vertex   -1.721185e+02 1.021613e+02 5.000000e-01
      vertex   -1.721185e+02 1.021613e+02 8.500000e+00
    endloop
  endfacet
  facet normal -9.112062e-01 -4.119506e-01 0.000000e+00
    outer loop
      vertex   -1.672121e+02 8.550000e+01 5.000000e-01
      vertex   -1.672121e+02 8.550000e+01 8.500000e+00
      vertex   -1.681291e+02 8.752815e+01 5.000000e-01
    endloop
  endfacet
  facet normal -9.112062e-01 -4.119506e-01 0.000000e+00
    outer loop
      vertex   -1.681291e+02 8.752815e+01 5.000000e-01
      vertex   -1.672121e+02 8.550000e+01 8.500000e+00
      vertex   -1.681291e+02 8.752815e+01 8.500000e+00
    endloop
  endfacet
  facet normal -9.194640e-01 -3.931742e-01 0.000000e+00
    outer loop
      vertex   -1.690042e+02 8.957468e+01 8.500000e+00
      vertex   -1.681291e+02 8.752815e+01 5.000000e-01
      vertex   -1.681291e+02 8.752815e+01 8.500000e+00
    endloop
  endfacet
  facet normal -9.194640e-01 -3.931742e-01 -0.000000e+00
    outer loop
      vertex   -1.690042e+02 8.957468e+01 8.500000e+00
      vertex   -1.690042e+02 8.957468e+01 5.000000e-01
      vertex   -1.681291e+02 8.752815e+01 5.000000e-01
    endloop
  endfacet
  facet normal -9.273350e-01 -3.742323e-01 0.000000e+00
    outer loop
      vertex   -1.690042e+02 8.957468e+01 8.500000e+00
      vertex   -1.698371e+02 9.163873e+01 8.500000e+00
      vertex   -1.690042e+02 8.957468e+01 5.000000e-01
    endloop
  endfacet
  facet normal -9.273350e-01 -3.742323e-01 -0.000000e+00
    outer loop
      vertex   -1.690042e+02 8.957468e+01 5.000000e-01
      vertex   -1.698371e+02 9.163873e+01 8.500000e+00
      vertex   -1.698371e+02 9.163873e+01 5.000000e-01
    endloop
  endfacet
  facet normal -9.348158e-01 -3.551330e-01 0.000000e+00
    outer loop
      vertex   -1.698371e+02 9.163873e+01 5.000000e-01
      vertex   -1.698371e+02 9.163873e+01 8.500000e+00
      vertex   -1.706276e+02 9.371943e+01 8.500000e+00
    endloop
  endfacet
  facet normal -9.419033e-01 -3.358843e-01 0.000000e+00
    outer loop
      vertex   -1.706276e+02 9.371943e+01 5.000000e-01
      vertex   -1.706276e+02 9.371943e+01 8.500000e+00
      vertex   -1.713752e+02 9.581590e+01 8.500000e+00
    endloop
  endfacet
  facet normal -9.485944e-01 -3.164942e-01 0.000000e+00
    outer loop
      vertex   -1.713752e+02 9.581590e+01 5.000000e-01
      vertex   -1.713752e+02 9.581590e+01 8.500000e+00
      vertex   -1.720796e+02 9.792727e+01 8.500000e+00
    endloop
  endfacet
  facet normal -9.548865e-01 -2.969710e-01 0.000000e+00
    outer loop
      vertex   -1.720796e+02 9.792727e+01 5.000000e-01
      vertex   -1.720796e+02 9.792727e+01 8.500000e+00
      vertex   -1.727406e+02 1.000526e+02 8.500000e+00
    endloop
  endfacet
  facet normal -9.548865e-01 -2.969710e-01 0.000000e+00
    outer loop
      vertex   -1.727406e+02 1.000526e+02 5.000000e-01
      vertex   -1.720796e+02 9.792727e+01 5.000000e-01
      vertex   -1.727406e+02 1.000526e+02 8.500000e+00
    endloop
  endfacet
  facet normal -9.348158e-01 -3.551330e-01 -0.000000e+00
    outer loop
      vertex   -1.698371e+02 9.163873e+01 5.000000e-01
      vertex   -1.706276e+02 9.371943e+01 8.500000e+00
      vertex   -1.706276e+02 9.371943e+01 5.000000e-01
    endloop
  endfacet
  facet normal -9.419033e-01 -3.358843e-01 -0.000000e+00
    outer loop
      vertex   -1.706276e+02 9.371943e+01 5.000000e-01
      vertex   -1.713752e+02 9.581590e+01 8.500000e+00
      vertex   -1.713752e+02 9.581590e+01 5.000000e-01
    endloop
  endfacet
  facet normal -9.485944e-01 -3.164942e-01 -0.000000e+00
    outer loop
      vertex   -1.713752e+02 9.581590e+01 5.000000e-01
      vertex   -1.720796e+02 9.792727e+01 8.500000e+00
      vertex   -1.720796e+02 9.792727e+01 5.000000e-01
    endloop
  endfacet
  facet normal 0.000000e+00 0.000000e+00 -1.000000e+00
    outer loop
      vertex   -1.616700e+02 8.550000e+01 5.000000e-01
      vertex   -1.672121e+02 8.550000e+01 5.000000e-01
      vertex   -1.626408e+02 8.752744e+01 5.000000e-01
    endloop
  endfacet
  facet normal -0.000000e+00 0.000000e+00 -1.000000e+00
    outer loop
      vertex   -1.626408e+02 8.752744e+01 5.000000e-01
      vertex   -1.672121e+02 8.550000e+01 5.000000e-01
      vertex   -1.681291e+02 8.752815e+01 5.000000e-01
    endloop
  endfacet
  facet normal -0.000000e+00 0.000000e+00 -1.000000e+00
    outer loop
      vertex   -1.635673e+02 8.957549e+01 5.000000e-01
      vertex   -1.681291e+02 8.752815e+01 5.000000e-01
      vertex   -1.690042e+02 8.957468e+01 5.000000e-01
    endloop
  endfacet
  facet normal -0.000000e+00 0.000000e+00 -1.000000e+00
    outer loop
      vertex   -1.644491e+02 9.164317e+01 5.000000e-01
      vertex   -1.690042e+02 8.957468e+01 5.000000e-01
      vertex   -1.698371e+02 9.163873e+01 5.000000e-01
    endloop
  endfacet
  facet normal -0.000000e+00 0.000000e+00 -1.000000e+00
    outer loop
      vertex   -1.652858e+02 9.372951e+01 5.000000e-01
      vertex   -1.698371e+02 9.163873e+01 5.000000e-01
      vertex   -1.706276e+02 9.371943e+01 5.000000e-01
    endloop
  endfacet
  facet normal -0.000000e+00 0.000000e+00 -1.000000e+00
    outer loop
      vertex   -1.660770e+02 9.583353e+01 5.000000e-01
      vertex   -1.706276e+02 9.371943e+01 5.000000e-01
      vertex   -1.713752e+02 9.581590e+01 5.000000e-01
    endloop
  endfacet
  facet normal -0.000000e+00 0.000000e+00 -1.000000e+00
    outer loop
      vertex   -1.668223e+02 9.795424e+01 5.000000e-01
      vertex   -1.713752e+02 9.581590e+01 5.000000e-01
      vertex   -1.720796e+02 9.792727e+01 5.000000e-01
    endloop
  endfacet
  facet normal -0.000000e+00 0.000000e+00 -1.000000e+00
    outer loop
      vertex   -1.675214e+02 1.000906e+02 5.000000e-01
      vertex   -1.720796e+02 9.792727e+01 5.000000e-01
      vertex   -1.727406e+02 1.000526e+02 5.000000e-01
    endloop
  endfacet
  facet normal 0.000000e+00 -0.000000e+00 -1.000000e+00
    outer loop
      vertex   -1.721185e+02 1.021613e+02 5.000000e-01
      vertex   -1.675214e+02 1.000906e+02 5.000000e-01
      vertex   -1.727406e+02 1.000526e+02 5.000000e-01
    endloop
  endfacet
  facet normal 0.000000e+00 -0.000000e+00 -1.000000e+00
    outer loop
      vertex   -1.721185e+02 1.021613e+02 5.000000e-01
      vertex   -1.668646e+02 1.021988e+02 5.000000e-01
      vertex   -1.675214e+02 1.000906e+02 5.000000e-01
    endloop
  endfacet
  facet normal 0.000000e+00 0.000000e+00 -1.000000e+00
    outer loop
      vertex   -1.721185e+02 1.021613e+02 5.000000e-01
      vertex   -1.714526e+02 1.042565e+02 5.000000e-01
      vertex   -1.668646e+02 1.021988e+02 5.000000e-01
    endloop
  endfacet
  facet normal 0.000000e+00 0.000000e+00 -1.000000e+00
    outer loop
      vertex   -1.668646e+02 1.021988e+02 5.000000e-01
      vertex   -1.714526e+02 1.042565e+02 5.000000e-01
      vertex   -1.661618e+02 1.042921e+02 5.000000e-01
    endloop
  endfacet
  facet normal -0.000000e+00 0.000000e+00 -1.000000e+00
    outer loop
      vertex   -1.661618e+02 1.042921e+02 5.000000e-01
      vertex   -1.714526e+02 1.042565e+02 5.000000e-01
      vertex   -1.707432e+02 1.063374e+02 5.000000e-01
    endloop
  endfacet
  facet normal -0.000000e+00 0.000000e+00 -1.000000e+00
    outer loop
      vertex   -1.654132e+02 1.063695e+02 5.000000e-01
      vertex   -1.707432e+02 1.063374e+02 5.000000e-01
      vertex   -1.699907e+02 1.084031e+02 5.000000e-01
    endloop
  endfacet
  facet normal -0.000000e+00 0.000000e+00 -1.000000e+00
    outer loop
      vertex   -1.646192e+02 1.084300e+02 5.000000e-01
      vertex   -1.699907e+02 1.084031e+02 5.000000e-01
      vertex   -1.691954e+02 1.104527e+02 5.000000e-01
    endloop
  endfacet
  facet normal -0.000000e+00 0.000000e+00 -1.000000e+00
    outer loop
      vertex   -1.637802e+02 1.104725e+02 5.000000e-01
      vertex   -1.691954e+02 1.104527e+02 5.000000e-01
      vertex   -1.683577e+02 1.124853e+02 5.000000e-01
    endloop
  endfacet
  facet normal -0.000000e+00 -0.000000e+00 -1.000000e+00
    outer loop
      vertex   -1.674778e+02 1.145000e+02 5.000000e-01
      vertex   -1.637802e+02 1.104725e+02 5.000000e-01
      vertex   -1.683577e+02 1.124853e+02 5.000000e-01
    endloop
  endfacet
  facet normal 0.000000e+00 -0.000000e+00 -1.000000e+00
    outer loop
      vertex   -1.674778e+02 1.145000e+02 5.000000e-01
      vertex   -1.628966e+02 1.124962e+02 5.000000e-01
      vertex   -1.637802e+02 1.104725e+02 5.000000e-01
    endloop
  endfacet
  facet normal 0.000000e+00 -0.000000e+00 -1.000000e+00
    outer loop
      vertex   -1.674778e+02 1.145000e+02 5.000000e-01
      vertex   -1.619689e+02 1.145000e+02 5.000000e-01
      vertex   -1.628966e+02 1.124962e+02 5.000000e-01
    endloop
  endfacet
  facet normal 0.000000e+00 0.000000e+00 -1.000000e+00
    outer loop
      vertex   -1.626408e+02 8.752744e+01 5.000000e-01
      vertex   -1.681291e+02 8.752815e+01 5.000000e-01
      vertex   -1.635673e+02 8.957549e+01 5.000000e-01
    endloop
  endfacet
  facet normal -0.000000e+00 0.000000e+00 -1.000000e+00
    outer loop
      vertex   -1.635673e+02 8.957549e+01 5.000000e-01
      vertex   -1.690042e+02 8.957468e+01 5.000000e-01
      vertex   -1.644491e+02 9.164317e+01 5.000000e-01
    endloop
  endfacet
  facet normal -0.000000e+00 0.000000e+00 -1.000000e+00
    outer loop
      vertex   -1.644491e+02 9.164317e+01 5.000000e-01
      vertex   -1.698371e+02 9.163873e+01 5.000000e-01
      vertex   -1.652858e+02 9.372951e+01 5.000000e-01
    endloop
  endfacet
  facet normal -0.000000e+00 0.000000e+00 -1.000000e+00
    outer loop
      vertex   -1.652858e+02 9.372951e+01 5.000000e-01
      vertex   -1.706276e+02 9.371943e+01 5.000000e-01
      vertex   -1.660770e+02 9.583353e+01 5.000000e-01
    endloop
  endfacet
  facet normal -0.000000e+00 0.000000e+00 -1.000000e+00
    outer loop
      vertex   -1.660770e+02 9.583353e+01 5.000000e-01
      vertex   -1.713752e+02 9.581590e+01 5.000000e-01
      vertex   -1.668223e+02 9.795424e+01 5.000000e-01
    endloop
  endfacet
  facet normal -0.000000e+00 0.000000e+00 -1.000000e+00
    outer loop
      vertex   -1.668223e+02 9.795424e+01 5.000000e-01
      vertex   -1.720796e+02 9.792727e+01 5.000000e-01
      vertex   -1.675214e+02 1.000906e+02 5.000000e-01
    endloop
  endfacet
  facet normal 0.000000e+00 0.000000e+00 -1.000000e+00
    outer loop
      vertex   -1.661618e+02 1.042921e+02 5.000000e-01
      vertex   -1.707432e+02 1.063374e+02 5.000000e-01
      vertex   -1.654132e+02 1.063695e+02 5.000000e-01
    endloop
  endfacet
  facet normal 0.000000e+00 0.000000e+00 -1.000000e+00
    outer loop
      vertex   -1.654132e+02 1.063695e+02 5.000000e-01
      vertex   -1.699907e+02 1.084031e+02 5.000000e-01
      vertex   -1.646192e+02 1.084300e+02 5.000000e-01
    endloop
  endfacet
  facet normal 0.000000e+00 0.000000e+00 -1.000000e+00
    outer loop
      vertex   -1.646192e+02 1.084300e+02 5.000000e-01
      vertex   -1.691954e+02 1.104527e+02 5.000000e-01
      vertex   -1.637802e+02 1.104725e+02 5.000000e-01
    endloop
  endfacet
endsolid
